<!-- Generator: Adobe Illustrator 19.0.0, SVG Export Plug-In  -->
<svg version="1.1"
	 xmlns="http://www.w3.org/2000/svg" xmlns:xlink="http://www.w3.org/1999/xlink" xmlns:a="http://ns.adobe.com/AdobeSVGViewerExtensions/3.0/"
	 x="0px" y="0px" width="32px" height="32px" viewBox="0 0 32 32" style="enable-background:new 0 0 32 32;" xml:space="preserve">
<style type="text/css">
	.st0{fill:#FFFFFF;}
</style>
<defs>
</defs>
<g id="OUTLINE_copy_1_">
	<g>
		<path class="st0" d="M14.895,15.618c0,0,1.589-0.121,1.589-2.022c0-1.9-1.078-2.837-2.725-2.837L8.115,10.75v10.5h5.775
			c0,0,2.887,0.091,2.887-3.15C16.778,18.1,16.99,15.618,14.895,15.618z M10.215,12.325h2.887c0,0,0.988,0.016,0.988,1.297
			c0,1.328-0.988,1.328-0.988,1.328h-2.887V12.325z M13.365,19.675h-3.15v-3.15h3.15c0,0,1.575,0.016,1.575,1.575
			S13.592,19.675,13.365,19.675z"/>
		<path class="st0" d="M21.24,13.375c-3.944,0-3.937,3.937-3.937,3.937S17.04,21.25,21.24,21.25c0,0,3.675,0,3.675-3.15h-2.1
			c0,0,0,1.575-1.575,1.575c0,0-1.575,0-1.575-2.1c0,0,4.2,0,5.25,0C24.915,16.525,24.915,13.375,21.24,13.375z M19.665,16.525
			c0,0-0.035-1.575,1.575-1.575c1.609,0,1.575,1.575,1.575,1.575H19.665z"/>
		<rect x="19.14" y="11.8" class="st0" width="4.2" height="1.05"/>
	</g>
	<g>
		<g id="Shopping_10_1_">
			<g>
				<g>
					<g>
						<g>
							<path class="st0" d="M16,1c8.271,0,15,6.729,15,15s-6.729,15-15,15S1,24.271,1,16S7.729,1,16,1 M16,0C7.164,0,0,7.163,0,16
								s7.164,16,16,16c8.837,0,16-7.163,16-16S24.837,0,16,0L16,0z"/>
						</g>
					</g>
				</g>
			</g>
		</g>
	</g>
</g>
</svg>