<!-- Generator: Adobe Illustrator 19.0.0, SVG Export Plug-In  -->
<svg version="1.1"
	 xmlns="http://www.w3.org/2000/svg" xmlns:xlink="http://www.w3.org/1999/xlink" xmlns:a="http://ns.adobe.com/AdobeSVGViewerExtensions/3.0/"
	 x="0px" y="0px" width="61.812px" height="61.813px" viewBox="0 0 61.812 61.813"
	 style="enable-background:new 0 0 61.812 61.813;" xml:space="preserve">
<defs>
</defs>
<path d="M30.906,61.813C13.864,61.813,0,47.946,0,30.905C0,13.864,13.864,0,30.906,0c17.042,0,30.906,13.864,30.906,30.905
	C61.812,47.946,47.948,61.813,30.906,61.813z M56.971,35.137c-0.902-0.287-8.171-2.453-16.443-1.128
	c3.453,9.487,4.859,17.214,5.127,18.823C51.577,48.826,55.793,42.483,56.971,35.137z M41.218,55.246
	c-0.394-2.316-1.926-10.387-5.633-20.017l-0.174,0.059c-14.889,5.187-20.233,15.514-20.709,16.485
	c4.475,3.491,10.101,5.573,16.205,5.573C34.561,57.345,38.048,56.599,41.218,55.246z M11.293,48.598
	c0.598-1.023,7.843-13.019,21.458-17.42c0.343-0.114,0.691-0.217,1.04-0.315c-0.663-1.5-1.385-3.002-2.14-4.48
	c-13.182,3.946-25.975,3.781-27.13,3.756c-0.007,0.27-0.015,0.536-0.015,0.808C4.506,37.727,7.076,43.916,11.293,48.598z
	 M5.064,25.539c1.181,0.016,12.057,0.064,24.405-3.215c-4.373-7.777-9.09-14.314-9.788-15.267
	C12.297,10.538,6.776,17.347,5.064,25.539z M24.719,5.282c0.73,0.975,5.525,7.506,9.85,15.452
	c9.389-3.516,13.362-8.859,13.837-9.535c-4.661-4.135-10.792-6.652-17.499-6.652C28.776,4.547,26.704,4.801,24.719,5.282z
	 M51.341,14.253c-0.557,0.751-4.981,6.423-14.741,10.407c0.613,1.26,1.202,2.537,1.752,3.825c0.192,0.456,0.382,0.91,0.567,1.364
	c8.784-1.106,17.511,0.665,18.383,0.848C57.243,24.465,55.017,18.744,51.341,14.253z"/>
</svg>