<!-- Generator: Adobe Illustrator 19.0.0, SVG Export Plug-In  -->
<svg version="1.1"
	 xmlns="http://www.w3.org/2000/svg" xmlns:xlink="http://www.w3.org/1999/xlink" xmlns:a="http://ns.adobe.com/AdobeSVGViewerExtensions/3.0/"
	 x="0px" y="0px" width="908.85px" height="57.803px" viewBox="0 0 908.85 57.803"
	 style="enable-background:new 0 0 908.85 57.803;" xml:space="preserve">
<defs>
</defs>
<g id="XMLID_15_">
	<path id="XMLID_17_" d="M38.881,7.421v39.15h-6.156V20.597h-0.108L22.842,39.93h-2.97l-9.774-19.333H9.99v25.975H3.888V7.421h6.264
		l11.178,23.706h0.108L32.563,7.421H38.881z"/>
	<path id="XMLID_19_" d="M45.464,24.971c1.944-3.78,5.022-6.372,9.828-6.372c6.534,0,9.126,4.104,9.126,9.396v12.96
		c0,1.296,0.648,2.052,1.944,2.052h0.702v3.456c-0.81,0.216-1.836,0.432-2.808,0.432c-2.538,0-4.05-1.026-4.914-2.484
		c-1.944,1.836-4.32,2.646-7.074,2.646c-4.86,0-7.722-3.078-7.722-7.56c0-4.806,2.862-8.856,11.988-8.856h1.89v-2.646
		c0-3.348-1.35-4.752-3.996-4.752c-2.16,0-3.996,1.296-5.292,3.78L45.464,24.971z M58.425,40.793v-6.156h-1.89
		c-4.752,0-6.21,1.728-6.21,4.428c0,2.808,1.296,3.834,3.456,3.834C55.833,42.9,57.237,42.144,58.425,40.793z"/>
	<path id="XMLID_22_" d="M85.693,24.917c-0.756-0.486-1.674-0.702-2.646-0.702c-3.618,0-5.562,2.646-6.048,7.074v15.282H70.95
		V19.139h5.238l0.27,4.536h0.108c1.566-3.564,3.834-4.968,6.696-4.968c1.08,0,2.268,0.27,3.078,0.702L85.693,24.917z"/>
	<path id="XMLID_24_" d="M103.673,23.675h-6.21v15.066c0,2.592,1.296,3.726,3.348,3.726c0.81,0,1.566-0.162,2.322-0.432l0.54,3.726
		c-1.404,0.756-3.024,1.242-5.022,1.242c-5.184,0-7.29-3.024-7.29-8.532V23.945l-3.294-0.864v-3.834l3.618-0.27l1.566-7.561h4.212
		v7.722h6.21V23.675z"/>
	<path id="XMLID_26_" d="M114.85,19.139v27.433h-6.048V19.139H114.85z M114.633,7.421v6.372h-5.616V7.421H114.633z"/>
	<path id="XMLID_29_" d="M127.646,46.572h-6.048V19.139h5.4l0.162,2.646h0.108c1.836-2.106,4.374-3.132,7.452-3.132
		c5.67,0,8.748,3.942,8.748,10.368v17.55h-5.994V29.184c0-3.726-1.566-5.562-4.59-5.562c-2.376,0-4.212,1.134-5.238,2.646V46.572z"
		/>
	<path id="XMLID_31_" d="M183.047,15.035l-4.752,2.16c-1.134-3.186-3.618-4.968-6.858-4.968c-3.942,0-5.4,1.944-5.4,4.698
		c0,7.614,17.389,6.534,17.389,19.063c0,7.128-4.752,11.124-12.096,11.124c-5.832,0-10.962-3.456-12.475-9.072l5.076-1.836
		c1.242,3.726,4.212,5.562,7.344,5.562c3.888,0,5.778-1.674,5.778-5.076c0-8.478-17.712-6.804-17.712-19.44
		c0-5.833,4.374-10.368,11.556-10.368C177.053,6.881,181.211,10.121,183.047,15.035z"/>
	<path id="XMLID_33_" d="M200.919,46.572h-6.75l-9.558-27.433h6.858l5.994,22.086h0.108l6.103-22.086h6.858L200.919,46.572z"/>
	<path id="XMLID_35_" d="M218.738,33.612v3.186c0,3.726,1.782,5.67,5.184,5.67c2.592,0,4.158-1.134,5.292-4.05l4.32,1.62
		c-1.566,4.698-4.752,7.02-10.206,7.02c-6.858,0-10.638-4.266-10.638-10.044v-8.424c0-5.508,3.618-9.936,10.53-9.936
		c6.642,0,10.26,4.536,10.26,10.206v4.752H218.738z M218.738,30.047h9.396v-1.89c0-3.24-1.728-5.022-4.698-5.022
		c-3.24,0-4.698,1.89-4.698,5.13V30.047z"/>
	<path id="XMLID_38_" d="M244.548,46.572H238.5V19.139h5.4l0.162,2.646h0.108c1.836-2.106,4.374-3.132,7.452-3.132
		c5.67,0,8.748,3.942,8.748,10.368v17.55h-5.994V29.184c0-3.726-1.566-5.562-4.59-5.562c-2.376,0-4.212,1.134-5.238,2.646V46.572z"
		/>
	<path id="XMLID_40_" d="M264.796,40.848l4.32-2.052c1.296,2.862,3.402,3.996,5.292,3.996c2.592,0,3.834-1.242,3.834-3.51
		c0-5.346-13.068-3.51-13.068-12.744c0-4.374,3.294-7.884,9.396-7.884c4.536,0,7.776,2.376,9.18,6.264l-4.158,1.566
		c-1.134-2.592-2.754-3.51-4.806-3.51c-2.646,0-3.888,1.242-3.888,3.078c0,5.13,13.068,3.456,13.068,12.69
		c0,4.806-3.888,8.316-9.396,8.316C270.034,47.058,266.632,45.114,264.796,40.848z"/>
	<path id="XMLID_42_" d="M287.257,40.848l4.32-2.052c1.296,2.862,3.402,3.996,5.292,3.996c2.592,0,3.834-1.242,3.834-3.51
		c0-5.346-13.068-3.51-13.068-12.744c0-4.374,3.294-7.884,9.396-7.884c4.536,0,7.776,2.376,9.18,6.264l-4.158,1.566
		c-1.134-2.592-2.754-3.51-4.806-3.51c-2.646,0-3.888,1.242-3.888,3.078c0,5.13,13.068,3.456,13.068,12.69
		c0,4.806-3.888,8.316-9.396,8.316C292.495,47.058,289.093,45.114,287.257,40.848z"/>
	<path id="XMLID_44_" d="M332.075,37.176c0,5.562-3.78,9.882-11.016,9.882c-7.236,0-10.962-4.32-10.962-9.882v-8.532
		c0-5.562,3.726-9.99,10.962-9.99c7.344,0,11.016,4.32,11.016,9.99V37.176z M316.145,36.906c0,3.618,1.62,5.616,4.914,5.616
		c3.456,0,4.968-1.998,4.968-5.616v-8.046c0-3.564-1.512-5.616-4.968-5.616c-3.402,0-4.914,2.052-4.914,5.616V36.906z"/>
	<path id="XMLID_47_" d="M343.413,46.572h-6.048V19.139h5.4l0.162,2.646h0.108c1.836-2.106,4.374-3.132,7.452-3.132
		c5.67,0,8.748,3.942,8.748,10.368v17.55h-5.994V29.184c0-3.726-1.566-5.562-4.59-5.562c-2.376,0-4.212,1.134-5.238,2.646V46.572z"
		/>
	<path id="XMLID_49_" d="M397.68,46.572l-9.936-17.172l-3.726,4.86v12.312h-6.642V7.421h6.642v19.494h0.108l12.42-19.494h7.722
		l-12.15,17.388l13.176,21.762H397.68z"/>
	<path id="XMLID_51_" d="M408.477,24.971c1.944-3.78,5.022-6.372,9.828-6.372c6.534,0,9.126,4.104,9.126,9.396v12.96
		c0,1.296,0.648,2.052,1.944,2.052h0.702v3.456c-0.81,0.216-1.836,0.432-2.808,0.432c-2.538,0-4.05-1.026-4.914-2.484
		c-1.944,1.836-4.32,2.646-7.074,2.646c-4.86,0-7.722-3.078-7.722-7.56c0-4.806,2.862-8.856,11.988-8.856h1.89v-2.646
		c0-3.348-1.35-4.752-3.996-4.752c-2.16,0-3.996,1.296-5.292,3.78L408.477,24.971z M421.437,40.793v-6.156h-1.89
		c-4.752,0-6.21,1.728-6.21,4.428c0,2.808,1.296,3.834,3.456,3.834C418.845,42.9,420.249,42.144,421.437,40.793z"/>
	<path id="XMLID_54_" d="M440.604,6.233v40.339h-6.048V6.233H440.604z"/>
	<path id="XMLID_56_" d="M452.591,33.612v3.186c0,3.726,1.782,5.67,5.184,5.67c2.593,0,4.158-1.134,5.292-4.05l4.32,1.62
		c-1.565,4.698-4.752,7.02-10.206,7.02c-6.858,0-10.638-4.266-10.638-10.044v-8.424c0-5.508,3.618-9.936,10.53-9.936
		c6.642,0,10.26,4.536,10.26,10.206v4.752H452.591z M452.591,30.047h9.396v-1.89c0-3.24-1.729-5.022-4.698-5.022
		c-3.24,0-4.698,1.89-4.698,5.13V30.047z M463.986,7.421l-5.185,7.56h-4.482l2.97-7.56H463.986z"/>
	<path id="XMLID_60_" d="M478.401,46.572h-6.049V19.139h5.4l0.162,2.646h0.108c1.836-2.106,4.374-3.132,7.452-3.132
		c5.67,0,8.748,3.942,8.748,10.368v17.55h-5.994V29.184c0-3.726-1.566-5.562-4.59-5.562c-2.377,0-4.213,1.134-5.238,2.646V46.572z"
		/>
	<path id="XMLID_62_" d="M522.03,6.449h4.644l-15.012,44.712h-4.645L522.03,6.449z"/>
	<path id="XMLID_64_" d="M566.847,15.629l-4.914,1.782c-1.458-3.456-3.888-4.968-7.183-4.968c-5.346,0-7.775,3.078-7.775,8.964
		v11.988c0,5.454,2.646,8.1,7.452,8.1c2.916,0,4.968-0.918,6.588-3.456v-6.75h-5.022v-4.482h10.962v19.764h-5.508V43.71h-0.107
		c-2.215,2.214-5.131,3.348-8.587,3.348c-7.668,0-12.527-4.644-12.527-13.554v-12.15c0-8.694,4.535-14.472,13.932-14.472
		C560.529,6.881,565.335,10.337,566.847,15.629z"/>
	<path id="XMLID_66_" d="M587.742,24.917c-0.756-0.486-1.674-0.702-2.646-0.702c-3.618,0-5.563,2.646-6.049,7.074v15.282H573V19.139
		h5.238l0.27,4.536h0.108c1.566-3.564,3.834-4.968,6.696-4.968c1.08,0,2.268,0.27,3.078,0.702L587.742,24.917z"/>
	<path id="XMLID_68_" d="M591.196,24.971c1.944-3.78,5.022-6.372,9.828-6.372c6.534,0,9.126,4.104,9.126,9.396v12.96
		c0,1.296,0.648,2.052,1.944,2.052h0.702v3.456c-0.811,0.216-1.836,0.432-2.809,0.432c-2.537,0-4.05-1.026-4.914-2.484
		c-1.943,1.836-4.319,2.646-7.073,2.646c-4.86,0-7.723-3.078-7.723-7.56c0-4.806,2.862-8.856,11.988-8.856h1.89v-2.646
		c0-3.348-1.35-4.752-3.996-4.752c-2.159,0-3.996,1.296-5.292,3.78L591.196,24.971z M604.156,40.793v-6.156h-1.89
		c-4.752,0-6.21,1.728-6.21,4.428c0,2.808,1.296,3.834,3.456,3.834C601.564,42.9,602.968,42.144,604.156,40.793z"/>
	<path id="XMLID_71_" d="M622.838,44.574h-0.108v11.124h-6.048V19.139h5.4l0.162,2.646h0.107c1.836-2.106,4.374-3.132,7.561-3.132
		c5.616,0,8.64,3.996,8.64,10.422v7.56c0,6.318-3.077,10.368-9.071,10.368C626.888,47.004,624.567,46.194,622.838,44.574z
		 M622.73,39.714c1.026,1.458,2.646,2.538,5.076,2.538c3.133,0,4.752-1.836,4.752-5.616v-7.452c0-3.672-1.512-5.562-4.59-5.562
		c-2.376,0-4.212,1.188-5.238,2.592V39.714z"/>
	<path id="XMLID_74_" d="M650.106,46.572h-6.049V6.233h6.049v15.174h0.107c1.729-1.836,4.158-2.754,7.074-2.754
		c5.616,0,8.641,3.942,8.641,10.368v17.55h-6.049V29.184c0-3.726-1.512-5.562-4.59-5.562c-2.376,0-4.212,1.188-5.184,2.592V46.572z"
		/>
	<path id="XMLID_76_" d="M678.183,19.139v27.433h-6.048V19.139H678.183z M677.967,7.421v6.372h-5.616V7.421H677.967z"/>
	<path id="XMLID_79_" d="M699.729,26.916c-0.918-2.484-2.646-3.51-4.807-3.51c-3.132,0-4.914,1.674-4.914,5.454v7.992
		c0,3.78,1.782,5.562,4.914,5.562c2.376,0,3.889-1.08,4.86-3.726l4.32,1.62c-1.566,4.212-4.753,6.75-9.774,6.75
		c-6.858,0-10.368-4.536-10.368-9.936v-8.478c0-5.562,3.563-9.99,10.368-9.99c4.536,0,8.046,2.376,9.612,6.588L699.729,26.916z"/>
	<path id="XMLID_81_" d="M734.015,7.421c8.694,0,13.717,5.292,13.717,13.662v11.88c0,8.316-5.022,13.608-13.717,13.608h-13.446
		V7.421H734.015z M734.015,13.091h-6.696v27.972h6.696c4.645,0,6.967-2.43,6.967-8.262V21.407
		C740.982,15.629,738.66,13.091,734.015,13.091z"/>
	<path id="XMLID_84_" d="M758.528,33.612v3.186c0,3.726,1.782,5.67,5.185,5.67c2.592,0,4.157-1.134,5.292-4.05l4.319,1.62
		c-1.565,4.698-4.752,7.02-10.206,7.02c-6.857,0-10.638-4.266-10.638-10.044v-8.424c0-5.508,3.618-9.936,10.53-9.936
		c6.642,0,10.26,4.536,10.26,10.206v4.752H758.528z M758.528,30.047h9.396v-1.89c0-3.24-1.729-5.022-4.698-5.022
		c-3.24,0-4.698,1.89-4.698,5.13V30.047z"/>
	<path id="XMLID_87_" d="M776.94,40.848l4.32-2.052c1.296,2.862,3.401,3.996,5.292,3.996c2.592,0,3.834-1.242,3.834-3.51
		c0-5.346-13.068-3.51-13.068-12.744c0-4.374,3.294-7.884,9.396-7.884c4.535,0,7.775,2.376,9.18,6.264l-4.158,1.566
		c-1.134-2.592-2.754-3.51-4.806-3.51c-2.646,0-3.889,1.242-3.889,3.078c0,5.13,13.068,3.456,13.068,12.69
		c0,4.806-3.888,8.316-9.396,8.316C782.178,47.058,778.776,45.114,776.94,40.848z"/>
	<path id="XMLID_89_" d="M807.232,19.139v27.433h-6.048V19.139H807.232z M807.016,7.421v6.372H801.4V7.421H807.016z"/>
	<path id="XMLID_92_" d="M819.38,36.582c-1.08,0.54-1.62,1.242-1.62,1.998c0,1.08,0.756,1.782,2.97,1.782h5.994
		c6.643,0,9.072,2.7,9.072,6.966c0,5.616-4.32,8.802-11.88,8.802c-7.452,0-10.368-2.754-10.368-6.75c0-1.944,0.756-3.726,2.16-4.968
		c-1.782-0.918-2.809-2.538-2.809-4.536c0-1.836,1.135-3.672,3.511-4.914c-1.675-1.512-2.484-3.834-2.484-7.02
		c0-6.318,3.132-9.288,9.937-9.288c2.43,0,4.428,0.378,5.939,1.134c1.566-0.864,2.754-2.268,3.294-3.51l2.809,1.188
		c-0.324,2.16-1.404,4.104-2.916,5.4c0.702,1.404,1.08,3.078,1.08,5.13c0,6.21-3.24,9.126-10.206,9.126
		C822.134,37.122,820.623,36.959,819.38,36.582z M820.136,45.276c-1.134,0.756-1.566,1.836-1.566,3.402
		c0,2.322,1.837,3.348,5.616,3.348c5.347,0,6.318-1.728,6.318-3.888c0-2.052-0.864-2.862-4.158-2.862H820.136z M823.917,32.963
		c3.348,0,4.374-0.972,4.374-4.968c0-3.942-1.188-5.022-4.374-5.022c-3.24,0-4.32,1.08-4.32,5.022
		C819.596,31.992,820.623,32.963,823.917,32.963z"/>
	<path id="XMLID_96_" d="M846.162,46.572h-6.048V19.139h5.4l0.162,2.646h0.107c1.836-2.106,4.374-3.132,7.452-3.132
		c5.671,0,8.748,3.942,8.748,10.368v17.55h-5.994V29.184c0-3.726-1.565-5.562-4.59-5.562c-2.376,0-4.212,1.134-5.238,2.646V46.572z"
		/>
	<path id="XMLID_98_" d="M872.836,33.612v3.186c0,3.726,1.782,5.67,5.185,5.67c2.592,0,4.157-1.134,5.292-4.05l4.319,1.62
		c-1.565,4.698-4.752,7.02-10.206,7.02c-6.857,0-10.638-4.266-10.638-10.044v-8.424c0-5.508,3.618-9.936,10.53-9.936
		c6.642,0,10.26,4.536,10.26,10.206v4.752H872.836z M872.836,30.047h9.396v-1.89c0-3.24-1.729-5.022-4.698-5.022
		c-3.24,0-4.698,1.89-4.698,5.13V30.047z"/>
	<path id="XMLID_101_" d="M907.34,24.917c-0.756-0.486-1.674-0.702-2.646-0.702c-3.618,0-5.563,2.646-6.049,7.074v15.282h-6.048
		V19.139h5.238l0.271,4.536h0.107c1.566-3.564,3.834-4.968,6.696-4.968c1.08,0,2.268,0.27,3.078,0.702L907.34,24.917z"/>
</g>
</svg>