<!-- Generator: Adobe Illustrator 19.0.0, SVG Export Plug-In  -->
<svg version="1.1"
	 xmlns="http://www.w3.org/2000/svg" xmlns:xlink="http://www.w3.org/1999/xlink" xmlns:a="http://ns.adobe.com/AdobeSVGViewerExtensions/3.0/"
	 x="0px" y="0px" width="97.171px" height="61.537px" viewBox="0 0 97.171 61.537"
	 style="enable-background:new 0 0 97.171 61.537;" xml:space="preserve">
<defs>
</defs>
<g>
	<path d="M39.215,27.51c0,0,9.192-0.686,9.192-11.47C48.407,5.259,40.886,0,31.354,0H13.819h-0.518H0v60.26h13.301h0.518h17.539
		c0,0,19.146,0.6,19.146-17.789C50.504,42.471,51.333,27.51,39.215,27.51z M29.102,10.706h2.252c0,0,4.262,0,4.262,6.272
		c0,6.267-2.507,7.177-5.35,7.177H13.819V10.706H29.102z M30.475,49.552H13.819V33.447h17.539c0,0,6.355-0.084,6.355,8.275
		C37.713,48.768,32.965,49.5,30.475,49.552z"/>
	<path d="M76.033,15.33c-23.172,0-23.155,23.151-23.155,23.151S51.286,61.52,76.033,61.52c0,0,20.616,1.177,20.616-16.03H86.047
		c0,0,0.347,6.485-9.661,6.485c0,0-10.608,0.709-10.608-10.49h31.23C97.008,41.485,100.423,15.33,76.033,15.33z M65.66,33.447
		c0,0,1.3-9.289,10.61-9.289c9.307,0,9.187,9.289,9.187,9.289H65.66z"/>
	<rect x="63.066" y="3.546" width="24.864" height="7.418"/>
</g>
</svg>