<!-- Generator: Adobe Illustrator 19.0.0, SVG Export Plug-In  -->
<svg version="1.1"
	 xmlns="http://www.w3.org/2000/svg" xmlns:xlink="http://www.w3.org/1999/xlink" xmlns:a="http://ns.adobe.com/AdobeSVGViewerExtensions/3.0/"
	 x="0px" y="0px" width="276.729px" height="58.992px" viewBox="0 0 276.729 58.992"
	 style="enable-background:new 0 0 276.729 58.992;" xml:space="preserve">
<defs>
</defs>
<g id="XMLID_15_">
	<path id="XMLID_17_" d="M30.908,9.676l1.685-3.589h1.807l0.61,14.478h-2.246c-0.7-4.166-2.019-7.259-3.955-9.277
		c-1.937-2.018-4.15-3.027-6.641-3.027c-2.734,0-4.997,1.301-6.787,3.903s-2.686,6.709-2.686,12.32
		c0,5.936,0.984,10.344,2.954,13.223c1.579,2.261,3.906,3.391,6.982,3.391s5.664-1.131,7.764-3.394
		c1.514-1.644,2.571-4.068,3.174-7.275h2.197c-0.521,4.118-2.092,7.373-4.712,9.766s-5.843,3.589-9.668,3.589
		c-4.948,0-9.094-1.744-12.438-5.233s-5.018-7.958-5.018-13.407c0-6.051,1.929-10.881,5.786-14.492
		c3.288-3.074,7.137-4.611,11.548-4.611c1.741,0,3.357,0.272,4.847,0.818C27.601,7.401,29.199,8.342,30.908,9.676z"/>
	<path id="XMLID_19_" d="M51.955,18.929c2.556,0,4.903,0.554,7.044,1.66c2.14,1.107,3.73,2.551,4.772,4.334
		c1.042,1.781,1.563,3.927,1.563,6.433c0,4.004-1.363,7.076-4.089,9.216c-2.727,2.141-5.815,3.211-9.266,3.211
		c-2.441,0-4.675-0.549-6.701-1.648c-2.026-1.098-3.585-2.579-4.676-4.443c-1.091-1.863-1.636-3.967-1.636-6.311
		c0-3.531,1.233-6.49,3.699-8.875C45.132,20.121,48.228,18.929,51.955,18.929z M52.102,21.248c-1.692,0-3.039,0.745-4.04,2.233
		c-1.001,1.49-1.502,4.106-1.502,7.85c0,3.891,0.496,6.571,1.489,8.045c0.993,1.473,2.336,2.209,4.028,2.209
		c1.726,0,3.117-0.757,4.175-2.271s1.587-4.126,1.587-7.837c0-3.809-0.521-6.466-1.563-7.971
		C55.234,22.001,53.843,21.248,52.102,21.248z"/>
	<path id="XMLID_22_" d="M98.295,40.779v2.271H84.55v-2.271h1.44c0.765,0,1.335-0.195,1.709-0.586s0.562-0.96,0.562-1.709v-9.912
		c0-1.692-0.385-2.991-1.153-3.894c-0.77-0.904-1.778-1.355-3.025-1.355c-1.7,0-3.085,0.639-4.154,1.916
		c-1.068,1.278-1.604,3.146-1.604,5.604v7.642c0,0.749,0.191,1.318,0.574,1.709c0.382,0.391,0.874,0.586,1.477,0.586h1.733v2.271
		H67.826v-2.271h1.855c0.716,0,1.258-0.195,1.624-0.586s0.549-0.96,0.549-1.709V24.886c0-0.781-0.265-1.404-0.793-1.867
		c-0.529-0.465-1.226-0.696-2.088-0.696h-0.977v-2.124l9.546-0.513c0.342,1.4,0.603,3.068,0.781,5.005
		c1.331-1.807,2.751-3.157,4.26-4.053c1.509-0.895,3.1-1.343,4.771-1.343c2.271,0,4.064,0.757,5.379,2.271
		c1.298,1.514,1.947,3.622,1.947,6.323v10.596c0,0.814,0.188,1.4,0.562,1.758c0.374,0.358,0.969,0.537,1.782,0.537H98.295z"/>
	<path id="XMLID_24_" d="M107.159,10.799h2.173v9.399h7.544v2.637h-7.544v14.526c0,0.961,0.245,1.705,0.735,2.233
		c0.49,0.529,1.136,0.794,1.937,0.794c2.287,0,3.496-2.124,3.627-6.372h2.173c-0.049,2.263-0.407,4.081-1.074,5.457
		c-0.667,1.375-1.623,2.438-2.868,3.186s-2.649,1.123-4.212,1.123c-1.367,0-2.551-0.277-3.552-0.83s-1.799-1.379-2.393-2.479
		c-0.595-1.098-0.892-2.29-0.892-3.576V22.835h-4.053v-2.246c2.481-0.325,4.415-1.277,5.803-2.856
		C105.951,16.154,106.816,13.843,107.159,10.799z"/>
	<path id="XMLID_26_" d="M145.687,40.218l1.025,1.758c-0.993,0.684-1.884,1.155-2.673,1.416c-0.79,0.26-1.656,0.391-2.601,0.391
		c-1.399,0-2.531-0.297-3.394-0.891c-0.862-0.595-1.652-1.713-2.368-3.357c-1.66,1.645-3.149,2.763-4.468,3.357
		c-1.318,0.594-2.808,0.891-4.468,0.891c-2.295,0-4.085-0.529-5.371-1.587s-1.929-2.4-1.929-4.028c0-2.457,1.188-4.427,3.564-5.908
		c1.904-1.172,6.079-2.344,12.524-3.516v-3.296c0-1.302-0.432-2.364-1.294-3.187c-0.862-0.821-2.019-1.232-3.467-1.232
		c-1.106,0-2.083,0.236-2.93,0.708c-0.569,0.31-0.854,0.619-0.854,0.928c0,0.163,0.105,0.407,0.317,0.732
		c0.456,0.732,0.684,1.457,0.684,2.173c0,0.912-0.301,1.648-0.903,2.209c-0.603,0.563-1.408,0.843-2.417,0.843
		c-1.074,0-1.937-0.306-2.588-0.915c-0.651-0.611-0.977-1.396-0.977-2.356c0-1.578,0.854-2.97,2.563-4.175
		c2.132-1.497,4.785-2.246,7.959-2.246c2.393,0,4.517,0.375,6.372,1.123c1.188,0.473,2.152,1.298,2.894,2.479
		c0.74,1.18,1.11,2.633,1.11,4.357v11.597c0,0.879,0.163,1.514,0.488,1.904s0.773,0.586,1.343,0.586
		C144.303,40.975,144.922,40.723,145.687,40.218z M135.53,30.867c-3.483,0.473-5.839,1.2-7.067,2.185
		c-1.229,0.985-1.844,2.283-1.844,3.895c0,1.14,0.289,2.014,0.867,2.625c0.577,0.609,1.387,0.915,2.429,0.915
		c1.611,0,2.95-0.577,4.017-1.733c1.065-1.155,1.599-2.734,1.599-4.736V30.867z"/>
	<path id="XMLID_29_" d="M170.151,34.798l1.904,0.903c-0.993,2.572-2.522,4.562-4.59,5.97c-2.067,1.407-4.524,2.111-7.373,2.111
		c-3.857,0-6.868-1.054-9.033-3.162c-2.165-2.107-3.247-4.943-3.247-8.508c0-3.841,1.282-6.998,3.846-9.473
		c2.563-2.474,5.961-3.711,10.192-3.711c3.044,0,5.371,0.614,6.982,1.844c1.611,1.229,2.417,2.714,2.417,4.455
		c0,1.27-0.354,2.274-1.062,3.016c-0.708,0.74-1.641,1.11-2.796,1.11c-1.009,0-1.811-0.289-2.404-0.866
		c-0.595-0.578-0.892-1.331-0.892-2.259c0-0.797,0.325-1.725,0.977-2.783c0.276-0.439,0.415-0.748,0.415-0.928
		c0-0.325-0.253-0.618-0.759-0.879c-0.718-0.406-1.655-0.61-2.813-0.61c-2.154,0-3.713,0.684-4.675,2.051
		c-1.289,1.807-1.934,4.541-1.934,8.203s0.64,6.238,1.92,7.727c1.279,1.49,2.931,2.234,4.952,2.234c1.598,0,3.102-0.533,4.512-1.6
		C168.102,38.578,169.255,36.963,170.151,34.798z"/>
	<path id="XMLID_31_" d="M180.798,10.799h2.173v9.399h7.544v2.637h-7.544v14.526c0,0.961,0.245,1.705,0.735,2.233
		c0.49,0.529,1.136,0.794,1.937,0.794c2.287,0,3.496-2.124,3.627-6.372h2.173c-0.049,2.263-0.407,4.081-1.074,5.457
		c-0.667,1.375-1.623,2.438-2.868,3.186s-2.649,1.123-4.212,1.123c-1.367,0-2.551-0.277-3.552-0.83s-1.799-1.379-2.393-2.479
		c-0.595-1.098-0.892-2.29-0.892-3.576V22.835h-4.053v-2.246c2.481-0.325,4.415-1.277,5.803-2.856
		C179.59,16.154,180.455,13.843,180.798,10.799z"/>
	<path id="XMLID_33_" d="M204.532,6.941h14.542l8.2,24.463l8.165-24.463h14.918v2.271h-3.237c-0.801,0-1.354,0.146-1.655,0.439
		c-0.303,0.293-0.454,0.798-0.454,1.514v27.588c0,0.7,0.163,1.181,0.491,1.44c0.49,0.391,1.152,0.586,1.986,0.586h2.869v2.271
		h-18.384v-2.271h3.467c0.635,0,1.119-0.179,1.453-0.537c0.333-0.357,0.5-0.854,0.5-1.489V9.212L225.92,43.05h-2.159L212.32,8.919
		v26.392c0,1.514,0.48,2.755,1.44,3.724c0.96,0.968,2.352,1.55,4.175,1.745v2.271h-13.403v-2.271
		c1.692-0.146,3.007-0.74,3.943-1.782c0.936-1.041,1.403-2.368,1.403-3.979v-23.34c0-0.992-0.171-1.651-0.513-1.978
		c-0.342-0.325-1.001-0.488-1.978-0.488h-2.856V6.941z"/>
	<path id="XMLID_35_" d="M276.067,31.771h-16.016c0.049,3.207,0.695,5.57,1.938,7.092c1.243,1.522,2.84,2.283,4.79,2.283
		c1.396,0,2.722-0.391,3.973-1.172s2.535-2.197,3.851-4.248l1.782,1.099c-1.384,2.441-2.966,4.187-4.748,5.237
		c-1.782,1.049-3.96,1.574-6.531,1.574c-3.743,0-6.771-1.139-9.082-3.418c-2.312-2.278-3.467-5.2-3.467-8.765
		s1.164-6.543,3.491-8.936s5.184-3.589,8.569-3.589c2.344,0,4.358,0.48,6.043,1.44c1.685,0.961,2.994,2.364,3.931,4.212
		C275.526,26.428,276.019,28.825,276.067,31.771z M260.052,29.549h7.622c0.715,0,1.226-0.179,1.534-0.537
		c0.309-0.357,0.463-1.009,0.463-1.953c0-1.888-0.43-3.349-1.291-4.382c-0.86-1.034-1.956-1.551-3.287-1.551
		c-1.575,0-2.78,0.7-3.616,2.1C260.641,24.626,260.166,26.733,260.052,29.549z"/>
</g>
</svg>