<!-- Generator: Adobe Illustrator 19.0.0, SVG Export Plug-In  -->
<svg version="1.1"
	 xmlns="http://www.w3.org/2000/svg" xmlns:xlink="http://www.w3.org/1999/xlink" xmlns:a="http://ns.adobe.com/AdobeSVGViewerExtensions/3.0/"
	 x="0px" y="0px" width="75.361px" height="75.362px" viewBox="0 0 75.361 75.362"
	 style="enable-background:new 0 0 75.361 75.362;" xml:space="preserve">
<style type="text/css">
	.st0{fill:#EA4C89;}
	.st1{fill:#FFFFFF;}
</style>
<defs>
</defs>
<g>
	<rect class="st0" width="75.361" height="75.362"/>
	<path class="st1" d="M37.681,69.484c-17.042,0-30.906-13.867-30.906-30.908c0-17.04,13.864-30.905,30.906-30.905
		c17.042,0,30.906,13.864,30.906,30.905C68.587,55.617,54.723,69.484,37.681,69.484z M63.745,42.808
		c-0.902-0.287-8.171-2.453-16.443-1.128c3.453,9.487,4.859,17.214,5.127,18.823C58.352,56.497,62.568,50.154,63.745,42.808z
		 M47.993,62.917c-0.395-2.316-1.926-10.387-5.633-20.017l-0.174,0.059c-14.889,5.187-20.233,15.514-20.71,16.485
		c4.475,3.491,10.101,5.573,16.205,5.573C41.336,65.017,44.823,64.27,47.993,62.917z M18.067,56.269
		c0.598-1.023,7.843-13.019,21.458-17.42c0.343-0.114,0.691-0.217,1.04-0.315c-0.663-1.5-1.385-3.001-2.14-4.48
		C25.243,38,12.45,37.835,11.295,37.81c-0.007,0.27-0.015,0.536-0.015,0.808C11.28,45.398,13.85,51.587,18.067,56.269z
		 M11.838,33.21c1.181,0.016,12.057,0.063,24.405-3.215c-4.373-7.777-9.09-14.314-9.788-15.267
		C19.071,18.209,13.55,25.018,11.838,33.21z M31.493,12.953c0.73,0.975,5.525,7.506,9.85,15.452
		c9.389-3.516,13.362-8.859,13.837-9.535c-4.661-4.135-10.792-6.652-17.5-6.652C35.55,12.218,33.479,12.472,31.493,12.953z
		 M58.115,21.924c-0.557,0.751-4.981,6.423-14.741,10.407c0.613,1.26,1.202,2.537,1.752,3.825c0.192,0.456,0.382,0.91,0.567,1.364
		c8.784-1.106,17.511,0.666,18.383,0.848C64.017,32.136,61.791,26.415,58.115,21.924z"/>
</g>
</svg>