<!-- Generator: Adobe Illustrator 19.0.0, SVG Export Plug-In  -->
<svg version="1.1"
	 xmlns="http://www.w3.org/2000/svg" xmlns:xlink="http://www.w3.org/1999/xlink" xmlns:a="http://ns.adobe.com/AdobeSVGViewerExtensions/3.0/"
	 x="0px" y="0px" width="32px" height="32px" viewBox="0 0 32 32" style="enable-background:new 0 0 32 32;" xml:space="preserve">
<style type="text/css">
	.st0{fill:#FFFFFF;}
</style>
<defs>
</defs>
<g id="OUTLINE_copy_1_">
	<path class="st0" d="M22.29,10.826c-0.015,0.022-1.322,1.909-4.537,3.223c0.189,0.388,0.373,0.784,0.542,1.181
		c0.06,0.142,0.119,0.282,0.176,0.422c2.799-0.353,5.555,0.24,5.673,0.264C24.123,13.985,23.432,12.213,22.29,10.826z
		 M18.966,16.937c1.068,2.935,1.502,5.327,1.585,5.818c1.828-1.234,3.128-3.193,3.49-5.464
		C23.874,17.237,21.595,16.516,18.966,16.937z M19.18,23.499c-0.12-0.711-0.594-3.206-1.74-6.185
		c-0.018,0.006-0.036,0.012-0.055,0.018c-4.806,1.675-6.375,5.051-6.392,5.088c1.383,1.076,3.118,1.724,5.007,1.724
		C17.127,24.145,18.202,23.915,19.18,23.499z M17.125,12.835c3.073-1.151,4.233-2.918,4.253-2.948
		C19.945,8.623,18.062,7.856,16,7.856c-0.662,0-1.304,0.08-1.92,0.228C14.202,8.247,15.733,10.276,17.125,12.835z M16.884,15.964
		c-0.204-0.463-0.427-0.927-0.661-1.384c-4.194,1.256-8.218,1.165-8.362,1.16C7.859,15.827,7.855,15.913,7.855,16
		c0,2.092,0.789,4.001,2.087,5.441c-0.003-0.003,2.226-3.958,6.621-5.379C16.669,16.027,16.778,15.996,16.884,15.964z M25.343,14.08
		c0.128,0.627,0.195,1.274,0.195,1.921c0,0.645-0.065,1.29-0.195,1.92c-0.126,0.614-0.313,1.217-0.556,1.792
		c-0.238,0.565-0.534,1.111-0.88,1.62c-0.34,0.505-0.733,0.979-1.163,1.411c-0.432,0.429-0.907,0.822-1.411,1.164
		c-0.509,0.343-1.056,0.639-1.621,0.879c-0.576,0.243-1.179,0.429-1.791,0.555c-0.629,0.129-1.276,0.196-1.921,0.196
		c-0.647,0-1.294-0.065-1.921-0.196c-0.614-0.126-1.217-0.313-1.792-0.555c-0.565-0.24-1.111-0.536-1.621-0.879
		c-0.504-0.342-0.979-0.735-1.41-1.164c-0.432-0.433-0.823-0.906-1.164-1.411c-0.344-0.508-0.64-1.055-0.88-1.62
		c-0.244-0.576-0.43-1.179-0.557-1.792C6.527,17.291,6.462,16.646,6.462,16c0-0.647,0.065-1.294,0.194-1.921
		c0.126-0.614,0.313-1.218,0.557-1.792c0.239-0.566,0.536-1.113,0.88-1.621c0.341-0.506,0.734-0.979,1.164-1.411
		c0.43-0.43,0.905-0.821,1.41-1.163c0.509-0.345,1.056-0.641,1.621-0.881c0.576-0.244,1.179-0.43,1.792-0.556
		c0.626-0.127,1.272-0.193,1.92-0.193c0.645,0,1.291,0.065,1.921,0.194c0.613,0.125,1.216,0.312,1.791,0.556
		c0.565,0.24,1.11,0.536,1.621,0.881c0.504,0.342,0.98,0.733,1.411,1.163c0.43,0.433,0.823,0.905,1.163,1.411
		c0.345,0.508,0.641,1.055,0.88,1.621C25.032,12.862,25.218,13.466,25.343,14.08z M15.55,13.327
		c-1.41-2.505-2.917-4.549-3.025-4.693C10.254,9.707,8.558,11.8,8.03,14.322C8.244,14.322,11.638,14.365,15.55,13.327z"/>
	<g>
		<g id="Shopping_10_1_">
			<g>
				<g>
					<g>
						<g>
							<path class="st0" d="M16,1c8.271,0,15,6.729,15,15s-6.729,15-15,15S1,24.271,1,16S7.729,1,16,1 M16,0C7.163,0,0,7.163,0,16
								s7.163,16,16,16s16-7.163,16-16S24.837,0,16,0L16,0z"/>
						</g>
					</g>
				</g>
			</g>
		</g>
	</g>
</g>
</svg>