<!-- Generator: Adobe Illustrator 19.0.0, SVG Export Plug-In  -->
<svg version="1.1"
	 xmlns="http://www.w3.org/2000/svg" xmlns:xlink="http://www.w3.org/1999/xlink" xmlns:a="http://ns.adobe.com/AdobeSVGViewerExtensions/3.0/"
	 x="0px" y="0px" width="594.168px" height="57.803px" viewBox="0 0 594.168 57.803"
	 style="enable-background:new 0 0 594.168 57.803;" xml:space="preserve">
<defs>
</defs>
<g id="XMLID_15_">
	<path id="XMLID_17_" d="M23.544,46.572H17.55V29.076c0-3.996-1.566-5.454-3.888-5.454c-1.944,0-3.618,1.296-4.482,3.186v19.764
		H3.132V19.139h5.4v2.916H8.64c1.674-2.268,4.104-3.402,6.858-3.402c2.916,0,5.238,1.296,6.534,3.996
		c1.674-2.484,4.32-3.996,7.56-3.996c5.292,0,8.316,3.294,8.316,10.422v17.496h-5.994V29.076c0-3.51-1.296-5.454-4.104-5.454
		c-2.43,0-4.266,1.566-4.266,5.454V46.572z"/>
	<path id="XMLID_19_" d="M43.305,24.971c1.944-3.78,5.022-6.372,9.828-6.372c6.534,0,9.126,4.104,9.126,9.396v12.96
		c0,1.296,0.648,2.052,1.944,2.052h0.702v3.456c-0.81,0.216-1.836,0.432-2.808,0.432c-2.538,0-4.05-1.026-4.914-2.484
		c-1.944,1.836-4.32,2.646-7.074,2.646c-4.86,0-7.722-3.078-7.722-7.56c0-4.806,2.862-8.856,11.988-8.856h1.89v-2.646
		c0-3.348-1.35-4.752-3.996-4.752c-2.16,0-3.996,1.296-5.292,3.78L43.305,24.971z M56.265,40.793v-6.156h-1.89
		c-4.752,0-6.21,1.728-6.21,4.428c0,2.808,1.296,3.834,3.456,3.834C53.673,42.9,55.077,42.144,56.265,40.793z"/>
	<path id="XMLID_22_" d="M83.533,24.917c-0.756-0.486-1.674-0.702-2.646-0.702c-3.618,0-5.562,2.646-6.048,7.074v15.282h-6.048
		V19.139h5.238l0.27,4.536h0.108c1.566-3.564,3.834-4.968,6.696-4.968c1.08,0,2.268,0.27,3.078,0.702L83.533,24.917z"/>
	<path id="XMLID_24_" d="M101.513,23.675h-6.21v15.066c0,2.592,1.296,3.726,3.348,3.726c0.81,0,1.566-0.162,2.322-0.432l0.54,3.726
		c-1.404,0.756-3.024,1.242-5.022,1.242c-5.184,0-7.29-3.024-7.29-8.532V23.945l-3.294-0.864v-3.834l3.618-0.27l1.566-7.561h4.212
		v7.722h6.21V23.675z"/>
	<path id="XMLID_26_" d="M112.69,19.139v27.433h-6.048V19.139H112.69z M112.474,7.421v6.372h-5.616V7.421H112.474z"/>
	<path id="XMLID_29_" d="M125.487,46.572h-6.048V19.139h5.4l0.162,2.646h0.108c1.836-2.106,4.374-3.132,7.452-3.132
		c5.67,0,8.748,3.942,8.748,10.368v17.55h-5.994V29.184c0-3.726-1.566-5.562-4.59-5.562c-2.376,0-4.212,1.134-5.238,2.646V46.572z"
		/>
	<path id="XMLID_31_" d="M145.734,40.848l4.32-2.052c1.296,2.862,3.402,3.996,5.292,3.996c2.592,0,3.834-1.242,3.834-3.51
		c0-5.346-13.068-3.51-13.068-12.744c0-4.374,3.294-7.884,9.396-7.884c4.536,0,7.776,2.376,9.18,6.264l-4.158,1.566
		c-1.134-2.592-2.754-3.51-4.806-3.51c-2.646,0-3.888,1.242-3.888,3.078c0,5.13,13.068,3.456,13.068,12.69
		c0,4.806-3.888,8.316-9.396,8.316C150.972,47.058,147.57,45.114,145.734,40.848z"/>
	<path id="XMLID_33_" d="M175.81,6.233v26.299h0.108l9.99-13.393h6.534l-9.126,11.88l9.99,15.552h-6.804l-7.182-11.718l-3.51,3.78
		v7.938h-6.048V6.233H175.81z"/>
	<path id="XMLID_35_" d="M196.598,24.971c1.944-3.78,5.022-6.372,9.828-6.372c6.534,0,9.126,4.104,9.126,9.396v12.96
		c0,1.296,0.648,2.052,1.944,2.052h0.702v3.456c-0.81,0.216-1.836,0.432-2.808,0.432c-2.538,0-4.05-1.026-4.914-2.484
		c-1.944,1.836-4.32,2.646-7.074,2.646c-4.86,0-7.722-3.078-7.722-7.56c0-4.806,2.862-8.856,11.988-8.856h1.89v-2.646
		c0-3.348-1.35-4.752-3.996-4.752c-2.16,0-3.996,1.296-5.292,3.78L196.598,24.971z M209.558,40.793v-6.156h-1.89
		c-4.752,0-6.21,1.728-6.21,4.428c0,2.808,1.296,3.834,3.456,3.834C206.966,42.9,208.37,42.144,209.558,40.793z"/>
	<path id="XMLID_38_" d="M228.726,6.233v40.339h-6.048V6.233H228.726z"/>
	<path id="XMLID_40_" d="M240.712,33.612v3.186c0,3.726,1.782,5.67,5.184,5.67c2.592,0,4.158-1.134,5.292-4.05l4.32,1.62
		c-1.566,4.698-4.752,7.02-10.206,7.02c-6.858,0-10.638-4.266-10.638-10.044v-8.424c0-5.508,3.618-9.936,10.53-9.936
		c6.642,0,10.26,4.536,10.26,10.206v4.752H240.712z M240.712,30.047h9.396v-1.89c0-3.24-1.728-5.022-4.698-5.022
		c-3.24,0-4.698,1.89-4.698,5.13V30.047z"/>
	<path id="XMLID_43_" d="M266.522,46.572h-6.048V19.139h5.4l0.162,2.646h0.108c1.836-2.106,4.374-3.132,7.452-3.132
		c5.67,0,8.748,3.942,8.748,10.368v17.55h-5.994V29.184c0-3.726-1.566-5.562-4.59-5.562c-2.376,0-4.212,1.134-5.238,2.646V46.572z"
		/>
	<path id="XMLID_45_" d="M314.095,23.135l-0.973,11.61c-0.054,0.324-0.054,0.594-0.054,0.864c0,2.052,0.918,3.024,2.7,3.024
		c2.646,0,4.32-1.62,4.32-7.506V24.27c0-8.262-4.482-13.123-13.608-13.123c-9.396,0-14.58,6.156-14.58,14.256v10.8
		c0,9.666,5.886,14.85,14.796,14.85c6.156,0,9.666-1.674,12.906-4.752l3.24,2.43c-4.158,4.32-9.396,6.534-16.2,6.534
		c-12.204,0-19.278-7.074-19.278-19.063V25.295c0-10.152,6.912-18.522,19.116-18.522c11.988,0,18.036,7.668,18.036,17.497v6.804
		c0,8.262-3.726,11.934-8.964,11.934c-2.862,0-4.86-0.864-5.94-2.754c-1.836,1.89-4.212,2.916-7.074,2.916
		c-4.428,0-6.804-3.078-6.804-8.208c0-9.396,4.914-15.714,13.824-15.714h6.102l-0.216,3.888H314.095z M309.072,23.729h-0.702
		c-4.698,0-7.235,3.942-7.235,11.016c0,3.024,0.972,3.996,2.754,3.996c1.836,0,3.239-0.918,4.158-2.916L309.072,23.729z"/>
	<path id="XMLID_48_" d="M351.081,37.176c0,5.562-3.78,9.882-11.017,9.882c-7.235,0-10.962-4.32-10.962-9.882v-8.532
		c0-5.562,3.727-9.99,10.962-9.99c7.345,0,11.017,4.32,11.017,9.99V37.176z M335.15,36.906c0,3.618,1.62,5.616,4.914,5.616
		c3.456,0,4.969-1.998,4.969-5.616v-8.046c0-3.564-1.513-5.616-4.969-5.616c-3.401,0-4.914,2.052-4.914,5.616V36.906z"/>
	<path id="XMLID_51_" d="M371.707,19.139h5.994v27.433h-5.347l-0.216-2.592h-0.107c-1.891,2.052-4.429,3.078-7.507,3.078
		c-5.562,0-8.693-3.996-8.693-10.368v-17.55h6.048v17.604c0,3.618,1.512,5.508,4.59,5.508c2.376,0,4.212-1.188,5.238-2.592V19.139z"
		/>
	<path id="XMLID_53_" d="M397.354,23.675h-6.21v15.066c0,2.592,1.296,3.726,3.349,3.726c0.81,0,1.565-0.162,2.321-0.432l0.54,3.726
		c-1.403,0.756-3.023,1.242-5.021,1.242c-5.185,0-7.29-3.024-7.29-8.532V23.945l-3.294-0.864v-3.834l3.617-0.27l1.566-7.561h4.212
		v7.722h6.21V23.675z"/>
	<path id="XMLID_55_" d="M408.693,6.233v40.339h-6.048V6.233H408.693z"/>
	<path id="XMLID_57_" d="M436.61,37.176c0,5.562-3.78,9.882-11.017,9.882c-7.235,0-10.962-4.32-10.962-9.882v-8.532
		c0-5.562,3.727-9.99,10.962-9.99c7.345,0,11.017,4.32,11.017,9.99V37.176z M420.68,36.906c0,3.618,1.62,5.616,4.914,5.616
		c3.456,0,4.969-1.998,4.969-5.616v-8.046c0-3.564-1.513-5.616-4.969-5.616c-3.401,0-4.914,2.052-4.914,5.616V36.906z"/>
	<path id="XMLID_60_" d="M462.906,37.176c0,5.562-3.78,9.882-11.017,9.882c-7.235,0-10.962-4.32-10.962-9.882v-8.532
		c0-5.562,3.727-9.99,10.962-9.99c7.345,0,11.017,4.32,11.017,9.99V37.176z M446.976,36.906c0,3.618,1.62,5.616,4.914,5.616
		c3.456,0,4.969-1.998,4.969-5.616v-8.046c0-3.564-1.513-5.616-4.969-5.616c-3.401,0-4.914,2.052-4.914,5.616V36.906z"/>
	<path id="XMLID_63_" d="M474.46,6.233v26.299h0.108l9.99-13.393h6.534l-9.126,11.88l9.99,15.552h-6.805l-7.182-11.718l-3.511,3.78
		v7.938h-6.048V6.233H474.46z"/>
	<path id="XMLID_65_" d="M495.032,39.66h6.534v6.912h-6.534V39.66z"/>
	<path id="XMLID_67_" d="M521.977,26.916c-0.918-2.484-2.646-3.51-4.806-3.51c-3.132,0-4.914,1.674-4.914,5.454v7.992
		c0,3.78,1.782,5.562,4.914,5.562c2.376,0,3.888-1.08,4.86-3.726l4.319,1.62c-1.565,4.212-4.752,6.75-9.773,6.75
		c-6.858,0-10.368-4.536-10.368-9.936v-8.478c0-5.562,3.563-9.99,10.368-9.99c4.536,0,8.046,2.376,9.611,6.588L521.977,26.916z"/>
	<path id="XMLID_69_" d="M551.46,37.176c0,5.562-3.78,9.882-11.017,9.882s-10.962-4.32-10.962-9.882v-8.532
		c0-5.562,3.726-9.99,10.962-9.99c7.345,0,11.017,4.32,11.017,9.99V37.176z M535.529,36.906c0,3.618,1.62,5.616,4.914,5.616
		c3.456,0,4.968-1.998,4.968-5.616v-8.046c0-3.564-1.512-5.616-4.968-5.616c-3.402,0-4.914,2.052-4.914,5.616V36.906z"/>
	<path id="XMLID_72_" d="M577.161,46.572h-5.994V29.076c0-3.996-1.565-5.454-3.888-5.454c-1.944,0-3.618,1.296-4.482,3.186v19.764
		h-6.048V19.139h5.4v2.916h0.108c1.674-2.268,4.104-3.402,6.857-3.402c2.916,0,5.238,1.296,6.534,3.996
		c1.674-2.484,4.32-3.996,7.561-3.996c5.292,0,8.315,3.294,8.315,10.422v17.496h-5.994V29.076c0-3.51-1.296-5.454-4.104-5.454
		c-2.43,0-4.267,1.566-4.267,5.454V46.572z"/>
</g>
</svg>