<!-- Generator: Adobe Illustrator 19.0.0, SVG Export Plug-In  -->
<svg version="1.1"
	 xmlns="http://www.w3.org/2000/svg" xmlns:xlink="http://www.w3.org/1999/xlink" xmlns:a="http://ns.adobe.com/AdobeSVGViewerExtensions/3.0/"
	 x="0px" y="0px" width="32px" height="32px" viewBox="0 0 32 32" style="enable-background:new 0 0 32 32;" xml:space="preserve">
<style type="text/css">
	.st0{fill:#FFFFFF;}
</style>
<defs>
</defs>
<g id="OUTLINE_copy_1_">
	<path class="st0" d="M21.874,8.167H10.126c-1.106,0-1.959,0.852-1.959,1.959v11.749c0,1.105,0.852,1.959,1.959,1.959h11.749
		c1.105,0,1.959-0.852,1.959-1.959V10.126C23.833,9.019,22.98,8.167,21.874,8.167z M16.012,12.923c1.737,0,3.145,1.364,3.145,3.048
		c0,1.682-1.408,3.048-3.145,3.048c-1.736,0-3.144-1.365-3.144-3.048C12.868,14.287,14.276,12.923,16.012,12.923z M21.874,21.385
		c0,0.344-0.147,0.49-0.49,0.49h-10.77c-0.343,0-0.49-0.146-0.49-0.49v-6.854l1.22,0.265c-0.131,0.426-0.202,0.877-0.202,1.344
		c0,2.604,2.181,4.716,4.868,4.716c2.688,0,4.868-2.112,4.868-4.716c0-0.467-0.071-0.918-0.202-1.344l1.197-0.265L21.874,21.385
		L21.874,21.385z M21.874,12.574c0,0.271-0.219,0.49-0.49,0.49h-1.959c-0.271,0-0.49-0.219-0.49-0.49v-1.959
		c0-0.271,0.219-0.49,0.49-0.49h1.959c0.271,0,0.49,0.219,0.49,0.49C21.874,10.615,21.874,12.574,21.874,12.574z"/>
	<g>
		<g id="Shopping_10_1_">
			<g>
				<g>
					<g>
						<g>
							<path class="st0" d="M16,1c8.271,0,15,6.729,15,15s-6.729,15-15,15S1,24.271,1,16S7.729,1,16,1 M16,0C7.163,0,0,7.164,0,16
								s7.163,16,16,16s16-7.163,16-16S24.837,0,16,0L16,0z"/>
						</g>
					</g>
				</g>
			</g>
		</g>
	</g>
</g>
</svg>