<!-- Generator: Adobe Illustrator 19.0.0, SVG Export Plug-In  -->
<svg version="1.1"
	 xmlns="http://www.w3.org/2000/svg" xmlns:xlink="http://www.w3.org/1999/xlink" xmlns:a="http://ns.adobe.com/AdobeSVGViewerExtensions/3.0/"
	 x="0px" y="0px" width="219.637px" height="58.992px" viewBox="0 0 219.637 58.992"
	 style="enable-background:new 0 0 219.637 58.992;" xml:space="preserve">
<defs>
</defs>
<g id="XMLID_15_">
	<path id="XMLID_17_" d="M1.563,6.941h14.542l8.199,24.463L32.47,6.941h14.918v2.271H44.15c-0.802,0-1.354,0.146-1.655,0.439
		c-0.303,0.293-0.454,0.798-0.454,1.514v27.588c0,0.7,0.163,1.181,0.491,1.44c0.49,0.391,1.152,0.586,1.986,0.586h2.869v2.271
		H29.004v-2.271h3.467c0.635,0,1.118-0.179,1.452-0.537c0.334-0.357,0.501-0.854,0.501-1.489V9.212L22.95,43.05h-2.159L9.351,8.919
		v26.392c0,1.514,0.48,2.755,1.44,3.724c0.96,0.968,2.352,1.55,4.175,1.745v2.271H1.563v-2.271c1.692-0.146,3.007-0.74,3.942-1.782
		c0.936-1.041,1.404-2.368,1.404-3.979v-23.34c0-0.992-0.171-1.651-0.513-1.978C6.055,9.375,5.396,9.212,4.419,9.212H1.563V6.941z"
		/>
	<path id="XMLID_19_" d="M48.708,20.198h13.501v2.1h-1.294c-0.781,0-1.335,0.114-1.66,0.342c-0.326,0.229-0.488,0.521-0.488,0.879
		c0,0.407,0.139,0.871,0.415,1.392l5.692,11.068l4.781-10.019c0.261-0.553,0.391-1.058,0.391-1.514c0-0.65-0.244-1.172-0.732-1.563
		s-1.205-0.586-2.148-0.586h-0.708v-2.1h9.937v2.1c-0.977,0.033-1.75,0.248-2.319,0.646c-0.569,0.399-1.074,1.055-1.514,1.966
		l-9.099,19.071c-1.547,3.252-3.184,5.619-4.91,7.101c-1.318,1.106-2.801,1.66-4.445,1.66c-1.71,0-3.062-0.415-4.055-1.245
		c-0.994-0.83-1.49-1.855-1.49-3.076c0-0.912,0.289-1.656,0.867-2.234c0.577-0.577,1.306-0.866,2.185-0.866
		c0.896,0,1.628,0.28,2.197,0.843c0.569,0.561,0.854,1.265,0.854,2.111c0,0.276-0.057,0.626-0.171,1.05
		c-0.065,0.244-0.098,0.431-0.098,0.562c0,0.391,0.212,0.586,0.635,0.586c0.749,0,1.685-0.606,2.808-1.818
		c1.123-1.213,2.352-3.157,3.688-5.831l-9.738-18.718c-0.357-0.699-0.725-1.176-1.1-1.428c-0.375-0.253-0.823-0.379-1.345-0.379
		h-0.636V20.198z"/>
	<path id="XMLID_21_" d="M86.163,6.941h14.526v2.271h-1.367c-0.862,0-1.444,0.102-1.745,0.305c-0.302,0.204-0.452,0.51-0.452,0.916
		c0,0.293,0.057,0.627,0.171,1.001l7.189,21.313l6.229-18.537l-1.072-3.167c-0.227-0.65-0.544-1.099-0.95-1.343
		c-0.536-0.325-1.243-0.488-2.12-0.488h-1.756V6.941h16.748v2.271h-1.543c-1.126,0-1.889,0.131-2.289,0.391
		c-0.399,0.261-0.6,0.644-0.6,1.147c0,0.212,0.041,0.439,0.123,0.684l7.129,21.313l5.993-18.774c0.195-0.569,0.293-1.123,0.293-1.66
		c0-0.992-0.265-1.758-0.794-2.295s-1.225-0.806-2.087-0.806h-1.025V6.941h11.768v2.271c-1.303,0.033-2.341,0.338-3.114,0.916
		c-0.773,0.577-1.339,1.437-1.697,2.575l-10.026,31.006h-2.997L112.184,18.4l-8.503,25.309h-2.975L89.661,11.043
		c-0.229-0.684-0.531-1.159-0.906-1.429c-0.375-0.268-0.855-0.402-1.441-0.402h-1.15V6.941z"/>
	<path id="XMLID_23_" d="M150.057,18.929c2.556,0,4.903,0.554,7.044,1.66c2.14,1.107,3.73,2.551,4.772,4.334
		c1.042,1.781,1.563,3.927,1.563,6.433c0,4.004-1.363,7.076-4.089,9.216c-2.727,2.141-5.815,3.211-9.266,3.211
		c-2.441,0-4.676-0.549-6.701-1.648c-2.027-1.098-3.586-2.579-4.676-4.443c-1.091-1.863-1.636-3.967-1.636-6.311
		c0-3.531,1.233-6.49,3.698-8.875C143.233,20.121,146.329,18.929,150.057,18.929z M150.203,21.248c-1.692,0-3.04,0.745-4.04,2.233
		c-1.002,1.49-1.502,4.106-1.502,7.85c0,3.891,0.496,6.571,1.489,8.045c0.993,1.473,2.335,2.209,4.028,2.209
		c1.725,0,3.117-0.757,4.175-2.271s1.587-4.126,1.587-7.837c0-3.809-0.521-6.466-1.563-7.971
		C153.336,22.001,151.944,21.248,150.203,21.248z"/>
	<path id="XMLID_26_" d="M181.626,40.779v2.271h-15.967v-2.271h1.978c0.813,0,1.407-0.159,1.782-0.476
		c0.374-0.318,0.562-0.745,0.562-1.282V25.496c0-1.09-0.249-1.888-0.745-2.393c-0.496-0.504-1.191-0.757-2.087-0.757h-1.294v-2.148
		l9.766-0.513v7.446c0.569-2.49,1.563-4.402,2.979-5.737c1.416-1.334,3.011-2.002,4.785-2.002c1.514,0,2.71,0.403,3.589,1.208
		c0.879,0.807,1.318,1.844,1.318,3.113c0,1.091-0.306,1.974-0.915,2.648c-0.611,0.676-1.355,1.014-2.234,1.014
		c-0.781,0-1.453-0.293-2.014-0.879c-0.563-0.586-0.843-1.334-0.843-2.246c0-0.504,0.133-1.033,0.399-1.587
		c0.141-0.309,0.211-0.528,0.211-0.659c0-0.228-0.053-0.395-0.158-0.5c-0.105-0.106-0.271-0.159-0.498-0.159
		c-0.584,0-1.225,0.342-1.922,1.025c-1.07,1.059-1.971,2.706-2.699,4.944c-0.73,2.237-1.095,4.496-1.095,6.774v4.932
		c0,0.57,0.154,1.005,0.464,1.306c0.309,0.302,0.74,0.452,1.294,0.452H181.626z"/>
	<path id="XMLID_28_" d="M188.879,6.722l10.815-0.317v25.073l6.766-5.44c1.075-0.878,1.613-1.615,1.613-2.213
		c0-0.371-0.219-0.698-0.656-0.98s-1.141-0.424-2.111-0.424h-0.802v-2.222h13.306v2.222c-1.423,0.048-2.535,0.224-3.337,0.526
		c-1.096,0.414-2.132,1.028-3.107,1.844l-3.854,3.201l8.443,11.445c0.684,0.896,1.506,1.343,2.466,1.343h1.221v2.271h-14.355v-2.271
		h1.411c0.682,0,1.16-0.077,1.436-0.23s0.414-0.327,0.414-0.521c0-0.178-0.081-0.372-0.243-0.584l-5.476-7.64l-3.133,2.456v4.541
		c0,0.717,0.146,1.225,0.439,1.525c0.293,0.302,0.773,0.452,1.44,0.452h1.587v2.271h-14.014v-2.271h1.733
		c0.83,0,1.437-0.199,1.819-0.598c0.382-0.398,0.573-1.004,0.573-1.817V10.846c0-0.617-0.192-1.089-0.577-1.414
		s-0.929-0.488-1.633-0.488h-2.185V6.722z"/>
</g>
</svg>