<!-- Generator: Adobe Illustrator 19.0.0, SVG Export Plug-In  -->
<svg version="1.1"
	 xmlns="http://www.w3.org/2000/svg" xmlns:xlink="http://www.w3.org/1999/xlink" xmlns:a="http://ns.adobe.com/AdobeSVGViewerExtensions/3.0/"
	 x="0px" y="0px" width="119.79px" height="117px" viewBox="0 0 119.79 117" style="enable-background:new 0 0 119.79 117;"
	 xml:space="preserve">
<style type="text/css">
	.st0{fill:#2A2C7A;}
</style>
<defs>
</defs>
<g id="XMLID_17_">
	<polygon id="XMLID_22_" class="st0" points="99.329,81 90.496,81 110.956,45.256 93.751,45.256 99.225,35.25 97.943,35.25 
		73.524,79.205 72.496,81 72.496,35.25 72.496,31.193 72.496,9 72.496,0 54.092,9 54.092,31.193 54.092,35.25 54.092,114.181 
		52.661,116.757 52.664,116.758 52.527,117 54.092,117 54.465,117 54.465,116.996 54.496,117 72.496,117 72.496,84.102 74.193,81 
		81.329,81 101.79,116.744 119.79,116.744 	"/>
	<path id="XMLID_18_" class="st0" d="M45.785,36.048L45.785,36.048c-0.382,0.395-1.106,0.933-1.168,0.979
		c-2.99,2.019-14.958,8.967-26.156-0.507C10.016,44.965,0.576,54.404,0.576,54.404v26.827h19.301L0,117l1.38-0.571l0.026-0.047
		c4.009-1.628,15.876-5.509,25.997,0.618c8.445-8.446,17.885-17.885,17.885-17.885V81.231v-8.942H25.944L46.556,35.25L45.785,36.048
		z M27.403,81.231c0,0.419,0,3.874,0,26.827c0,0-14.661-3.742-24.358,5.38l17.923-32.207H27.403z M24.846,72.288h-6.385V45.461
		c0,0,15.271,4.018,24.858-6.415L24.846,72.288z"/>
</g>
</svg>