<!-- Generator: Adobe Illustrator 19.0.0, SVG Export Plug-In  -->
<svg version="1.1"
	 xmlns="http://www.w3.org/2000/svg" xmlns:xlink="http://www.w3.org/1999/xlink" xmlns:a="http://ns.adobe.com/AdobeSVGViewerExtensions/3.0/"
	 x="0px" y="0px" width="1117.982px" height="115.199px" viewBox="0 0 1117.982 115.199"
	 style="enable-background:new 0 0 1117.982 115.199;" xml:space="preserve">
<style type="text/css">
	.st0{fill:#FFFFFF;}
</style>
<defs>
</defs>
<g id="XMLID_15_">
	<path id="XMLID_17_" class="st0" d="M22.201,36.599h0.051L34.103,7.297h5.501v35.402h-3.602V11.947h-0.1L23.102,42.699h-1.9
		L8.4,11.947h-0.1v30.752h-3.6V7.297h5.5L22.201,36.599z"/>
	<path id="XMLID_19_" class="st0" d="M54.851,39.049h0.101l7.25-19.751h3.7L54.25,48.75c-1.399,3.6-3.3,5.95-7.35,5.95
		c-1,0-2.051-0.101-3.051-0.3l0.35-3.101c0.751,0.25,1.601,0.4,2.501,0.4c2.3,0,3.5-1.501,4.5-4.15l1.9-4.9L43.1,19.298H46.9
		L54.851,39.049z"/>
	<path id="XMLID_21_" class="st0" d="M82.75,19.298c0.1,1.25,0.199,3,0.199,4h0.101c1.3-2.7,4.7-4.6,8.001-4.6
		c5.949,0,8.9,3.85,8.9,9.65v14.351h-3.4V29.748c0-4.9-1.45-8.2-6.351-8.2c-3.601,0-7.101,2.9-7.101,9.15v12.001h-3.4V24.448
		c0-1.25-0.05-3.551-0.199-5.15H82.75z"/>
	<path id="XMLID_23_" class="st0" d="M121.5,27.599c0-4.051-2.199-6.051-6.25-6.051c-2.75,0-5.301,1.101-6.951,2.75l-1.899-2.25
		c1.899-1.9,5.2-3.35,9.2-3.35c5.051,0,9.101,2.8,9.101,8.5v10.251c0,1.8,0.15,3.95,0.4,5.25h-3.05
		c-0.201-1.15-0.351-2.55-0.351-3.8H121.6c-2.149,3.1-4.75,4.399-8.5,4.399c-3.551,0-8.101-1.899-8.101-7.1
		c0-7.201,7.95-7.851,16.501-7.851V27.599z M120.5,30.998c-5.551,0-12,0.601-12,5.051c0,3.351,2.85,4.45,5.5,4.45
		c4.8,0,7.5-3.601,7.5-7.75v-1.751H120.5z"/>
	<path id="XMLID_26_" class="st0" d="M142.5,18.698c2.55,0,5.65,0.949,7.2,4.95c1.601-3.2,4.45-4.95,8.2-4.95
		c5.951,0,8.9,3.85,8.9,9.65v14.351h-3.4V29.748c0-4.9-1.649-8.2-6.05-8.2c-4.9,0-6.65,4.351-6.65,8.7v12.451h-3.4v-13.65
		c0-4.551-1.101-7.501-5.65-7.501c-3.25,0-6.8,2.9-6.8,9.15v12.001h-3.4V24.448c0-1.25-0.051-3.551-0.2-5.15h3.25
		c0.101,1.25,0.2,3,0.2,4h0.1C136.149,20.598,139.149,18.698,142.5,18.698z"/>
	<path id="XMLID_28_" class="st0" d="M194.85,31.898h-19.4c0.1,4.7,3.75,8.501,8.551,8.501c3.5,0,6.199-1.95,7.5-4.051l2.551,2
		c-2.751,3.501-6.201,4.95-10.051,4.95c-6.951,0-12.102-5.25-12.102-12.301c0-7.05,5.15-12.3,11.801-12.3
		c7.351,0,11.201,5.2,11.201,11.601C194.9,30.748,194.9,31.299,194.85,31.898z M191.45,29.198c-0.2-4.4-2.9-7.65-7.751-7.65
		c-4.55,0-7.9,3.65-8.2,7.65H191.45z"/>
	<path id="XMLID_31_" class="st0" d="M212.449,12.697c-1.201,0-2.4-1-2.4-2.4c0-1.399,1.199-2.399,2.4-2.399
		c1.199,0,2.399,1,2.399,2.399C214.849,11.697,213.648,12.697,212.449,12.697z M214.148,42.699h-3.4V19.298h3.4V42.699z"/>
	<path id="XMLID_34_" class="st0" d="M233.649,24.848c-1-1.949-3.15-3.3-5.751-3.3c-2.449,0-4.949,1.05-4.949,3.65
		c0,2.2,1.75,3.2,5.6,4c5.5,1.15,8.101,3.2,8.101,6.851c0,5.351-4.5,7.25-8.8,7.25c-3.551,0-7.102-1.399-9.252-4.55l2.701-2
		c1.199,2.05,3.75,3.65,6.5,3.65c2.9,0,5.5-1.051,5.5-4.101c0-2.45-2.449-3.45-6.9-4.5c-2.75-0.65-6.7-1.851-6.7-6.301
		c0-4.75,4.101-6.8,8.351-6.8c3.25,0,6.701,1.55,8.201,4.2L233.649,24.848z"/>
	<path id="XMLID_36_" class="st0" d="M269.599,36.599h0.05L281.5,7.297h5.5v35.402h-3.6V11.947H283.3l-12.801,30.752h-1.9
		l-12.801-30.752h-0.101v30.752h-3.6V7.297h5.5L269.599,36.599z"/>
	<path id="XMLID_38_" class="st0" d="M308.947,27.599c0-4.051-2.199-6.051-6.25-6.051c-2.75,0-5.3,1.101-6.95,2.75l-1.899-2.25
		c1.899-1.9,5.199-3.35,9.199-3.35c5.051,0,9.102,2.8,9.102,8.5v10.251c0,1.8,0.15,3.95,0.4,5.25h-3.051
		c-0.2-1.15-0.35-2.55-0.35-3.8h-0.101c-2.149,3.1-4.75,4.399-8.501,4.399c-3.55,0-8.1-1.899-8.1-7.1c0-7.201,7.95-7.851,16.5-7.851
		V27.599z M307.947,30.998c-5.55,0-12,0.601-12,5.051c0,3.351,2.85,4.45,5.5,4.45c4.801,0,7.5-3.601,7.5-7.75v-1.751H307.947z"/>
	<path id="XMLID_41_" class="st0" d="M318.697,19.298h3.25c0.1,1.25,0.199,3,0.199,4h0.101c1.3-2.7,4.2-4.6,7.501-4.6
		c0.85,0,1.549,0.05,2.25,0.25l-0.451,3.2c-0.399-0.15-1.5-0.301-2.399-0.301c-3.601,0-6.851,2.601-6.851,8.851v12.001h-3.4V24.448
		C318.896,23.198,318.847,20.897,318.697,19.298z"/>
	<path id="XMLID_43_" class="st0" d="M344.848,22.148h-6.601v13.65c0,3.5,1.45,4.3,3.5,4.3c0.95,0,2.05-0.3,2.95-0.75l0.15,2.95
		c-1.2,0.45-2.451,0.7-4,0.7c-2.501,0-6.001-1.1-6.001-6.25V22.148h-4.851v-2.851h4.851v-6.601h3.4v6.601h6.601V22.148z"/>
	<path id="XMLID_45_" class="st0" d="M349.896,12.697c-1.201,0-2.4-1-2.4-2.4c0-1.399,1.199-2.399,2.4-2.399
		c1.199,0,2.399,1,2.399,2.399C352.296,11.697,351.096,12.697,349.896,12.697z M351.596,42.699h-3.4V19.298h3.4V42.699z"/>
	<path id="XMLID_48_" class="st0" d="M361.695,19.298c0.101,1.25,0.201,3,0.201,4h0.1c1.3-2.7,4.7-4.6,8-4.6
		c5.951,0,8.9,3.85,8.9,9.65v14.351h-3.4V29.748c0-4.9-1.449-8.2-6.35-8.2c-3.6,0-7.101,2.9-7.101,9.15v12.001h-3.399V24.448
		c0-1.25-0.051-3.551-0.201-5.15H361.695z"/>
	<path id="XMLID_50_" class="st0" d="M386.295,49.699h-2.85l3.35-11.75h3.551L386.295,49.699z"/>
	<path id="XMLID_52_" class="st0" d="M409.495,42.699h-3.601V7.297h3.601V42.699z"/>
	<path id="XMLID_54_" class="st0" d="M417.145,19.048h-2.85l3.35-11.751h3.551L417.145,19.048z"/>
	<path id="XMLID_56_" class="st0" d="M436.845,18.698c2.55,0,5.65,0.949,7.2,4.95c1.601-3.2,4.451-4.95,8.201-4.95
		c5.95,0,8.9,3.85,8.9,9.65v14.351h-3.4V29.748c0-4.9-1.65-8.2-6.051-8.2c-4.9,0-6.65,4.351-6.65,8.7v12.451h-3.4v-13.65
		c0-4.551-1.1-7.501-5.65-7.501c-3.25,0-6.8,2.9-6.8,9.15v12.001h-3.399V24.448c0-1.25-0.051-3.551-0.201-5.15h3.25
		c0.101,1.25,0.201,3,0.201,4h0.1C430.494,20.598,433.494,18.698,436.845,18.698z"/>
	<path id="XMLID_58_" class="st0" d="M493.195,27.599c0-4.051-2.2-6.051-6.25-6.051c-2.751,0-5.301,1.101-6.951,2.75l-1.9-2.25
		c1.9-1.9,5.201-3.35,9.201-3.35c5.051,0,9.1,2.8,9.1,8.5v10.251c0,1.8,0.15,3.95,0.4,5.25h-3.05c-0.2-1.15-0.351-2.55-0.351-3.8
		h-0.1c-2.15,3.1-4.75,4.399-8.5,4.399c-3.551,0-8.102-1.899-8.102-7.1c0-7.201,7.951-7.851,16.502-7.851V27.599z M492.195,30.998
		c-5.551,0-12.001,0.601-12.001,5.051c0,3.351,2.851,4.45,5.5,4.45c4.8,0,7.501-3.601,7.501-7.75v-1.751H492.195z"/>
	<path id="XMLID_61_" class="st0" d="M514.895,47.399c1.85,2.4,5.4,4.301,8.949,4.301c6.701,0,9.151-4.15,9.151-9.201v-4.4h-0.101
		c-1.8,2.9-5.449,4.601-8.85,4.601c-7.301,0-12.102-5.051-12.102-11.9c0-6.65,4.801-12.101,12.102-12.101c3.4,0,7,1.649,8.85,4.649
		h0.101v-4.05h3.399v23.201c0,5.101-2.35,12.201-12.7,12.201c-4.3,0-8.501-1.801-11.251-4.7L514.895,47.399z M524.395,39.799
		c5.25,0,9-3.7,9-9.101c0-4.9-3.75-9.15-9-9.15c-5.65,0-8.851,4.25-8.851,9.15S518.744,39.799,524.395,39.799z"/>
	<path id="XMLID_64_" class="st0" d="M543.043,19.298h3.25c0.101,1.25,0.201,3,0.201,4h0.1c1.3-2.7,4.2-4.6,7.5-4.6
		c0.851,0,1.551,0.05,2.25,0.25l-0.449,3.2c-0.4-0.15-1.5-0.301-2.4-0.301c-3.6,0-6.851,2.601-6.851,8.851v12.001h-3.399V24.448
		C543.244,23.198,543.193,20.897,543.043,19.298z"/>
	<path id="XMLID_66_" class="st0" d="M573.394,27.599c0-4.051-2.2-6.051-6.25-6.051c-2.751,0-5.3,1.101-6.95,2.75l-1.9-2.25
		c1.9-1.9,5.2-3.35,9.2-3.35c5.05,0,9.101,2.8,9.101,8.5v10.251c0,1.8,0.15,3.95,0.4,5.25h-3.051c-0.199-1.15-0.35-2.55-0.35-3.8
		h-0.1c-2.15,3.1-4.75,4.399-8.501,4.399c-3.55,0-8.101-1.899-8.101-7.1c0-7.201,7.951-7.851,16.501-7.851V27.599z M572.394,30.998
		c-5.55,0-12.001,0.601-12.001,5.051c0,3.351,2.851,4.45,5.5,4.45c4.801,0,7.501-3.601,7.501-7.75v-1.751H572.394z"/>
	<path id="XMLID_69_" class="st0" d="M586.742,54.7h-3.399V19.298h3.399v4.05h0.15c1.95-3.05,5.451-4.649,8.801-4.649
		c7.301,0,12.101,5.399,12.101,12.3c0,6.901-4.8,12.301-12.101,12.301c-3.35,0-6.851-1.649-8.801-4.55h-0.15V54.7z M595.344,21.548
		c-5.251,0-9.001,4.101-9.001,9.45c0,5.351,3.75,9.401,9.001,9.401c5.65,0,8.85-4.2,8.85-9.401
		C604.193,25.798,600.994,21.548,595.344,21.548z"/>
	<path id="XMLID_72_" class="st0" d="M616.693,23.148c1.25-2.7,4.55-4.45,7.85-4.45c5.951,0,8.9,3.85,8.9,9.65v14.351h-3.4V29.748
		c0-4.9-1.449-8.2-6.35-8.2c-3.601,0-7.101,2.9-7.101,9.15v12.001h-3.4V4.896h3.4v18.252H616.693z"/>
	<path id="XMLID_74_" class="st0" d="M641.992,12.697c-1.2,0-2.4-1-2.4-2.4c0-1.399,1.2-2.399,2.4-2.399s2.4,1,2.4,2.399
		C644.393,11.697,643.192,12.697,641.992,12.697z M643.692,42.699h-3.4V19.298h3.4V42.699z"/>
	<path id="XMLID_77_" class="st0" d="M667.593,24.648c-1.1-1.801-3.45-3.101-6-3.101c-5.45,0-8.95,4.101-8.95,9.45
		c0,5.301,3.449,9.401,8.9,9.401c2.949,0,5-1.25,6.35-3.051l2.551,1.9c-2,2.45-4.851,4.05-8.9,4.05
		c-7.551,0-12.501-5.25-12.501-12.301c0-7.05,4.95-12.3,12.501-12.3c3.15,0,6.7,1.35,8.7,4.05L667.593,24.648z"/>
	<path id="XMLID_79_" class="st0" d="M686.193,24.848c-1-1.949-3.15-3.3-5.751-3.3c-2.45,0-4.95,1.05-4.95,3.65
		c0,2.2,1.75,3.2,5.6,4c5.501,1.15,8.102,3.2,8.102,6.851c0,5.351-4.5,7.25-8.801,7.25c-3.551,0-7.101-1.399-9.251-4.55l2.7-2
		c1.2,2.05,3.75,3.65,6.5,3.65c2.9,0,5.501-1.051,5.501-4.101c0-2.45-2.45-3.45-6.9-4.5c-2.751-0.65-6.7-1.851-6.7-6.301
		c0-4.75,4.1-6.8,8.35-6.8c3.251,0,6.701,1.55,8.201,4.2L686.193,24.848z"/>
	<path id="XMLID_81_" class="st0" d="M725.692,31.898h-19.401c0.1,4.7,3.75,8.501,8.551,8.501c3.5,0,6.2-1.95,7.5-4.051l2.551,2
		c-2.75,3.501-6.201,4.95-10.051,4.95c-6.95,0-12.101-5.25-12.101-12.301c0-7.05,5.15-12.3,11.801-12.3
		c7.351,0,11.2,5.2,11.2,11.601C725.742,30.748,725.742,31.299,725.692,31.898z M722.293,29.198c-0.201-4.4-2.9-7.65-7.751-7.65
		c-4.55,0-7.901,3.65-8.2,7.65H722.293z"/>
	<path id="XMLID_84_" class="st0" d="M734.091,19.298c0.101,1.25,0.2,3,0.2,4h0.1c1.301-2.7,4.701-4.6,8.001-4.6
		c5.95,0,8.9,3.85,8.9,9.65v14.351h-3.4V29.748c0-4.9-1.45-8.2-6.351-8.2c-3.6,0-7.1,2.9-7.1,9.15v12.001h-3.4V24.448
		c0-1.25-0.051-3.551-0.2-5.15H734.091z"/>
	<path id="XMLID_86_" class="st0" d="M768.641,22.148h-6.6v13.65c0,3.5,1.449,4.3,3.5,4.3c0.95,0,2.051-0.3,2.95-0.75l0.149,2.95
		c-1.199,0.45-2.449,0.7-4,0.7c-2.5,0-6-1.1-6-6.25V22.148h-4.85v-2.851h4.85v-6.601h3.4v6.601h6.6V22.148z"/>
	<path id="XMLID_88_" class="st0" d="M775.54,23.148c1.25-2.7,4.55-4.45,7.851-4.45c5.95,0,8.9,3.85,8.9,9.65v14.351h-3.4V29.748
		c0-4.9-1.449-8.2-6.35-8.2c-3.602,0-7.102,2.9-7.102,9.15v12.001h-3.4V4.896h3.4v18.252H775.54z"/>
	<path id="XMLID_90_" class="st0" d="M816.091,42.699c-0.101-1.25-0.2-3-0.2-4h-0.1c-1.301,2.7-4.701,4.6-8.001,4.6
		c-5.95,0-8.9-3.85-8.9-9.65V19.298h3.4v12.951c0,4.899,1.45,8.2,6.351,8.2c3.6,0,7.1-2.9,7.1-9.15V19.298h3.4v18.251
		c0,1.25,0.051,3.55,0.2,5.15H816.091z"/>
	<path id="XMLID_92_" class="st0" d="M838.59,24.848c-1-1.949-3.15-3.3-5.75-3.3c-2.451,0-4.951,1.05-4.951,3.65
		c0,2.2,1.75,3.2,5.601,4c5.501,1.15,8.101,3.2,8.101,6.851c0,5.351-4.5,7.25-8.801,7.25c-3.55,0-7.1-1.399-9.25-4.55l2.699-2
		c1.201,2.05,3.751,3.65,6.501,3.65c2.9,0,5.501-1.051,5.501-4.101c0-2.45-2.451-3.45-6.9-4.5c-2.751-0.65-6.701-1.851-6.701-6.301
		c0-4.75,4.101-6.8,8.351-6.8c3.251,0,6.7,1.55,8.2,4.2L838.59,24.848z"/>
	<path id="XMLID_94_" class="st0" d="M848.088,12.697c-1.199,0-2.4-1-2.4-2.4c0-1.399,1.201-2.399,2.4-2.399
		c1.201,0,2.4,1,2.4,2.399C850.488,11.697,849.289,12.697,848.088,12.697z M849.789,42.699h-3.4V19.298h3.4V42.699z"/>
	<path id="XMLID_97_" class="st0" d="M871.589,27.599c0-4.051-2.2-6.051-6.25-6.051c-2.751,0-5.3,1.101-6.95,2.75l-1.9-2.25
		c1.9-1.9,5.2-3.35,9.2-3.35c5.05,0,9.101,2.8,9.101,8.5v10.251c0,1.8,0.15,3.95,0.4,5.25h-3.051c-0.199-1.15-0.35-2.55-0.35-3.8
		h-0.1c-2.15,3.1-4.75,4.399-8.501,4.399c-3.55,0-8.101-1.899-8.101-7.1c0-7.201,7.951-7.851,16.501-7.851V27.599z M870.589,30.998
		c-5.55,0-12.001,0.601-12.001,5.051c0,3.351,2.851,4.45,5.5,4.45c4.801,0,7.501-3.601,7.501-7.75v-1.751H870.589z"/>
	<path id="XMLID_100_" class="st0" d="M893.989,24.848c-1-1.949-3.15-3.3-5.751-3.3c-2.449,0-4.949,1.05-4.949,3.65
		c0,2.2,1.75,3.2,5.6,4c5.5,1.15,8.101,3.2,8.101,6.851c0,5.351-4.5,7.25-8.8,7.25c-3.551,0-7.102-1.399-9.252-4.55l2.701-2
		c1.199,2.05,3.75,3.65,6.5,3.65c2.9,0,5.5-1.051,5.5-4.101c0-2.45-2.449-3.45-6.9-4.5c-2.75-0.65-6.7-1.851-6.7-6.301
		c0-4.75,4.101-6.8,8.351-6.8c3.25,0,6.701,1.55,8.201,4.2L893.989,24.848z"/>
	<path id="XMLID_102_" class="st0" d="M912.288,22.148h-6.601v13.65c0,3.5,1.45,4.3,3.5,4.3c0.951,0,2.051-0.3,2.951-0.75
		l0.149,2.95c-1.2,0.45-2.45,0.7-4,0.7c-2.501,0-6.001-1.1-6.001-6.25V22.148h-4.85v-2.851h4.85v-6.601h3.4v6.601h6.601V22.148z"/>
	<path id="XMLID_104_" class="st0" d="M925.887,19.298h3.25c0.1,1.25,0.2,3,0.2,4h0.101c1.299-2.7,4.199-4.6,7.5-4.6
		c0.85,0,1.55,0.05,2.25,0.25l-0.45,3.2c-0.399-0.15-1.5-0.301-2.399-0.301c-3.601,0-6.852,2.601-6.852,8.851v12.001h-3.399V24.448
		C926.087,23.198,926.037,20.897,925.887,19.298z"/>
	<path id="XMLID_106_" class="st0" d="M962.438,31.898h-19.4c0.1,4.7,3.75,8.501,8.55,8.501c3.501,0,6.2-1.95,7.501-4.051l2.55,2
		c-2.751,3.501-6.2,4.95-10.051,4.95c-6.95,0-12.101-5.25-12.101-12.301c0-7.05,5.15-12.3,11.801-12.3
		c7.35,0,11.201,5.2,11.201,11.601C962.488,30.748,962.488,31.299,962.438,31.898z M959.037,29.198c-0.199-4.4-2.9-7.65-7.75-7.65
		c-4.551,0-7.9,3.65-8.201,7.65H959.037z"/>
	<path id="XMLID_109_" class="st0" d="M971.186,54.7h-3.399V19.298h3.399v4.05h0.15c1.95-3.05,5.451-4.649,8.801-4.649
		c7.301,0,12.101,5.399,12.101,12.3c0,6.901-4.8,12.301-12.101,12.301c-3.35,0-6.851-1.649-8.801-4.55h-0.15V54.7z M979.787,21.548
		c-5.251,0-9.001,4.101-9.001,9.45c0,5.351,3.75,9.401,9.001,9.401c5.65,0,8.85-4.2,8.85-9.401
		C988.637,25.798,985.438,21.548,979.787,21.548z"/>
	<path id="XMLID_112_" class="st0" d="M1008.287,43.299c-7.251,0-12.451-5.25-12.451-12.301c0-7.05,5.2-12.3,12.451-12.3
		c7.3,0,12.5,5.25,12.5,12.3C1020.787,38.049,1015.587,43.299,1008.287,43.299z M1008.287,21.548c-5.4,0-8.852,4.2-8.852,9.45
		c0,5.251,3.451,9.401,8.852,9.401c5.449,0,8.9-4.15,8.9-9.401C1017.188,25.748,1013.736,21.548,1008.287,21.548z"/>
	<path id="XMLID_115_" class="st0" d="M1025.885,19.298h3.25c0.101,1.25,0.201,3,0.201,4h0.1c1.3-2.7,4.2-4.6,7.5-4.6
		c0.851,0,1.551,0.05,2.25,0.25l-0.449,3.2c-0.4-0.15-1.5-0.301-2.4-0.301c-3.6,0-6.851,2.601-6.851,8.851v12.001h-3.399V24.448
		C1026.086,23.198,1026.035,20.897,1025.885,19.298z"/>
	<path id="XMLID_117_" class="st0" d="M1052.035,22.148h-6.6v13.65c0,3.5,1.449,4.3,3.5,4.3c0.95,0,2.051-0.3,2.95-0.75l0.149,2.95
		c-1.199,0.45-2.449,0.7-4,0.7c-2.5,0-6-1.1-6-6.25V22.148h-4.85v-2.851h4.85v-6.601h3.4v6.601h6.6V22.148z"/>
	<path id="XMLID_119_" class="st0" d="M1057.084,12.697c-1.199,0-2.4-1-2.4-2.4c0-1.399,1.201-2.399,2.4-2.399
		c1.201,0,2.4,1,2.4,2.399C1059.484,11.697,1058.285,12.697,1057.084,12.697z M1058.785,42.699h-3.4V19.298h3.4V42.699z"/>
	<path id="XMLID_122_" class="st0" d="M1068.885,19.298c0.1,1.25,0.199,3,0.199,4h0.101c1.3-2.7,4.7-4.6,8.001-4.6
		c5.949,0,8.9,3.85,8.9,9.65v14.351h-3.4V29.748c0-4.9-1.45-8.2-6.351-8.2c-3.601,0-7.101,2.9-7.101,9.15v12.001h-3.4V24.448
		c0-1.25-0.05-3.551-0.199-5.15H1068.885z"/>
	<path id="XMLID_124_" class="st0" d="M1094.135,47.399c1.85,2.4,5.4,4.301,8.949,4.301c6.701,0,9.151-4.15,9.151-9.201v-4.4h-0.101
		c-1.8,2.9-5.449,4.601-8.85,4.601c-7.301,0-12.102-5.051-12.102-11.9c0-6.65,4.801-12.101,12.102-12.101c3.4,0,7,1.649,8.85,4.649
		h0.101v-4.05h3.399v23.201c0,5.101-2.35,12.201-12.7,12.201c-4.3,0-8.501-1.801-11.251-4.7L1094.135,47.399z M1103.635,39.799
		c5.25,0,9-3.7,9-9.101c0-4.9-3.75-9.15-9-9.15c-5.65,0-8.851,4.25-8.851,9.15S1097.984,39.799,1103.635,39.799z"/>
	<path id="XMLID_127_" class="st0" d="M320.497,103.299c-7.251,0-12.45-5.25-12.45-12.301c0-7.05,5.199-12.3,12.45-12.3
		c7.3,0,12.501,5.25,12.501,12.3C332.998,98.049,327.797,103.299,320.497,103.299z M320.497,81.548c-5.4,0-8.851,4.2-8.851,9.45
		c0,5.251,3.45,9.401,8.851,9.401c5.45,0,8.9-4.15,8.9-9.401C329.397,85.748,325.947,81.548,320.497,81.548z"/>
	<path id="XMLID_130_" class="st0" d="M355.297,102.699c-0.1-1.25-0.199-3-0.199-4h-0.101c-1.3,2.7-4.7,4.6-8.001,4.6
		c-5.949,0-8.9-3.85-8.9-9.65V79.298h3.4v12.951c0,4.899,1.45,8.2,6.351,8.2c3.601,0,7.101-2.9,7.101-9.15V79.298h3.4v18.251
		c0,1.25,0.05,3.55,0.199,5.15H355.297z"/>
	<path id="XMLID_132_" class="st0" d="M375.896,82.148h-6.601v13.65c0,3.5,1.45,4.3,3.5,4.3c0.95,0,2.05-0.3,2.95-0.75l0.15,2.95
		c-1.2,0.45-2.451,0.7-4,0.7c-2.501,0-6.001-1.1-6.001-6.25V82.148h-4.851v-2.851h4.851v-6.601h3.4v6.601h6.601V82.148z"/>
	<path id="XMLID_134_" class="st0" d="M400.445,103.299c-7.25,0-12.45-5.25-12.45-12.301c0-7.05,5.2-12.3,12.45-12.3
		c7.301,0,12.501,5.25,12.501,12.3C412.946,98.049,407.746,103.299,400.445,103.299z M400.445,81.548c-5.4,0-8.85,4.2-8.85,9.45
		c0,5.251,3.449,9.401,8.85,9.401c5.451,0,8.9-4.15,8.9-9.401C409.346,85.748,405.896,81.548,400.445,81.548z"/>
	<path id="XMLID_137_" class="st0" d="M428.145,82.148h-5.5v20.551h-3.4V82.148h-4.9v-2.851h4.9v-6.4
		c0-5.301,2.601-8.601,7.951-8.601c0.85,0,1.949,0.1,2.8,0.35l-0.601,3.001c-0.699-0.2-1.449-0.351-2.35-0.351
		c-3.65,0-4.4,2.601-4.4,6.001v6h5.5V82.148z"/>
	<path id="XMLID_139_" class="st0" d="M460.045,72.997c-1.5-2.149-3.951-3.55-7.301-3.55c-3.5,0-7.551,2.1-7.551,6.65
		c0,4.5,3.75,5.65,7.701,6.95c5,1.65,10.5,3.25,10.5,10.351s-5.95,10.201-11.551,10.201c-4.3,0-8.6-1.75-11.15-5.251l3.1-2.3
		c1.551,2.5,4.4,4.45,8.102,4.45c3.65,0,7.85-2.3,7.85-6.851c0-4.95-4.15-6.2-8.65-7.601c-4.699-1.45-9.5-3.5-9.5-9.9
		c0-6.851,6.1-9.75,11.301-9.75c4.75,0,8.301,2,10,4.3L460.045,72.997z"/>
	<path id="XMLID_141_" class="st0" d="M479.645,103.299c-7.25,0-12.451-5.25-12.451-12.301c0-7.05,5.201-12.3,12.451-12.3
		c7.301,0,12.5,5.25,12.5,12.3C492.145,98.049,486.945,103.299,479.645,103.299z M479.645,81.548c-5.4,0-8.851,4.2-8.851,9.45
		c0,5.251,3.45,9.401,8.851,9.401c5.45,0,8.9-4.15,8.9-9.401C488.545,85.748,485.095,81.548,479.645,81.548z"/>
	<path id="XMLID_144_" class="st0" d="M514.444,102.699c-0.101-1.25-0.2-3-0.2-4h-0.1c-1.301,2.7-4.701,4.6-8.001,4.6
		c-5.95,0-8.9-3.85-8.9-9.65V79.298h3.4v12.951c0,4.899,1.45,8.2,6.351,8.2c3.6,0,7.1-2.9,7.1-9.15V79.298h3.4v18.251
		c0,1.25,0.051,3.55,0.2,5.15H514.444z"/>
	<path id="XMLID_146_" class="st0" d="M535.043,82.148h-6.6v13.65c0,3.5,1.449,4.3,3.5,4.3c0.95,0,2.051-0.3,2.95-0.75l0.149,2.95
		c-1.199,0.45-2.449,0.7-4,0.7c-2.5,0-6-1.1-6-6.25V82.148h-4.85v-2.851h4.85v-6.601h3.4v6.601h6.6V82.148z"/>
	<path id="XMLID_148_" class="st0" d="M541.942,83.148c1.25-2.7,4.55-4.45,7.851-4.45c5.95,0,8.9,3.85,8.9,9.65v14.351h-3.4V89.748
		c0-4.9-1.449-8.2-6.35-8.2c-3.602,0-7.102,2.9-7.102,9.15v12.001h-3.4V64.896h3.4v18.252H541.942z"/>
	<path id="XMLID_150_" class="st0" d="M586.743,91.898h-19.401c0.1,4.7,3.75,8.501,8.551,8.501c3.5,0,6.2-1.95,7.5-4.051l2.551,2
		c-2.75,3.501-6.201,4.95-10.051,4.95c-6.95,0-12.101-5.25-12.101-12.301c0-7.05,5.15-12.3,11.801-12.3
		c7.351,0,11.2,5.2,11.2,11.601C586.793,90.748,586.793,91.299,586.743,91.898z M583.344,89.198c-0.201-4.4-2.9-7.65-7.751-7.65
		c-4.55,0-7.901,3.65-8.2,7.65H583.344z"/>
	<path id="XMLID_153_" class="st0" d="M591.892,79.298h3.25c0.101,1.25,0.2,3,0.2,4h0.1c1.301-2.7,4.201-4.6,7.501-4.6
		c0.851,0,1.55,0.05,2.25,0.25l-0.45,3.2c-0.4-0.15-1.5-0.301-2.4-0.301c-3.6,0-6.85,2.601-6.85,8.851v12.001h-3.4V84.448
		C592.092,83.198,592.041,80.897,591.892,79.298z"/>
	<path id="XMLID_155_" class="st0" d="M611.141,79.298c0.1,1.25,0.2,3,0.2,4h0.101c1.299-2.7,4.699-4.6,8-4.6
		c5.95,0,8.9,3.85,8.9,9.65v14.351h-3.4V89.748c0-4.9-1.449-8.2-6.35-8.2c-3.601,0-7.102,2.9-7.102,9.15v12.001h-3.399V84.448
		c0-1.25-0.05-3.551-0.2-5.15H611.141z"/>
	<path id="XMLID_157_" class="st0" d="M662.992,72.997c-1.501-2.149-3.951-3.55-7.301-3.55c-3.5,0-7.551,2.1-7.551,6.65
		c0,4.5,3.75,5.65,7.7,6.95c5.001,1.65,10.501,3.25,10.501,10.351s-5.951,10.201-11.551,10.201c-4.301,0-8.601-1.75-11.15-5.251
		l3.1-2.3c1.551,2.5,4.4,4.45,8.101,4.45c3.65,0,7.851-2.3,7.851-6.851c0-4.95-4.15-6.2-8.65-7.601c-4.7-1.45-9.5-3.5-9.5-9.9
		c0-6.851,6.1-9.75,11.3-9.75c4.751,0,8.301,2,10.001,4.3L662.992,72.997z"/>
	<path id="XMLID_159_" class="st0" d="M672.29,79.298l5.65,19.001h0.101l6.3-19.001h3.3l6.4,19.001h0.101l5.601-19.001h3.6
		l-7.4,23.401h-3.7l-6.25-18.951h-0.101l-6.15,18.951h-3.699l-7.4-23.401H672.29z"/>
	<path id="XMLID_161_" class="st0" d="M728.391,91.898h-19.4c0.1,4.7,3.75,8.501,8.55,8.501c3.501,0,6.2-1.95,7.501-4.051l2.55,2
		c-2.751,3.501-6.2,4.95-10.051,4.95c-6.95,0-12.101-5.25-12.101-12.301c0-7.05,5.15-12.3,11.801-12.3
		c7.35,0,11.201,5.2,11.201,11.601C728.441,90.748,728.441,91.299,728.391,91.898z M724.99,89.198c-0.199-4.4-2.9-7.65-7.75-7.65
		c-4.551,0-7.9,3.65-8.201,7.65H724.99z"/>
	<path id="XMLID_164_" class="st0" d="M744.14,103.299c-7.3,0-12.101-5.399-12.101-12.301c0-6.9,4.801-12.3,12.101-12.3
		c3.351,0,6.851,1.6,8.851,4.649h0.1V64.896h3.4v37.803h-3.4v-3.95h-0.1C750.99,101.699,747.49,103.299,744.14,103.299z
		 M744.49,100.399c5.25,0,9-4.051,9-9.401c0-5.35-3.75-9.45-9-9.45c-5.65,0-8.852,4.25-8.852,9.45
		C735.639,96.199,738.84,100.399,744.49,100.399z"/>
	<path id="XMLID_167_" class="st0" d="M784.84,91.898h-19.4c0.1,4.7,3.75,8.501,8.55,8.501c3.501,0,6.2-1.95,7.501-4.051l2.55,2
		c-2.751,3.501-6.2,4.95-10.051,4.95c-6.95,0-12.101-5.25-12.101-12.301c0-7.05,5.15-12.3,11.801-12.3
		c7.35,0,11.201,5.2,11.201,11.601C784.891,90.748,784.891,91.299,784.84,91.898z M781.439,89.198c-0.199-4.4-2.9-7.65-7.75-7.65
		c-4.551,0-7.9,3.65-8.201,7.65H781.439z"/>
	<path id="XMLID_170_" class="st0" d="M793.238,79.298c0.1,1.25,0.2,3,0.2,4h0.101c1.299-2.7,4.699-4.6,8-4.6
		c5.95,0,8.9,3.85,8.9,9.65v14.351h-3.4V89.748c0-4.9-1.449-8.2-6.35-8.2c-3.601,0-7.102,2.9-7.102,9.15v12.001h-3.399V84.448
		c0-1.25-0.05-3.551-0.2-5.15H793.238z"/>
</g>
</svg>