<!-- Generator: Adobe Illustrator 19.0.0, SVG Export Plug-In  -->
<svg version="1.1"
	 xmlns="http://www.w3.org/2000/svg" xmlns:xlink="http://www.w3.org/1999/xlink" xmlns:a="http://ns.adobe.com/AdobeSVGViewerExtensions/3.0/"
	 x="0px" y="0px" width="75px" height="76px" viewBox="0 0 75 76" style="enable-background:new 0 0 75 76;" xml:space="preserve">
<style type="text/css">
	.st0{fill:#FFFFFF;}
</style>
<defs>
</defs>
<g>
	<rect width="75" height="76"/>
	<path class="st0" d="M34.107,34.824c0,0,4.787-0.357,4.787-5.973c0-5.614-3.917-8.353-8.881-8.353h-9.132h-0.27h-6.927v31.381
		h6.927h0.27h9.134c0,0,9.971,0.313,9.971-9.264C39.986,42.615,40.418,34.824,34.107,34.824z M28.841,26.073h1.173
		c0,0,2.22,0,2.22,3.266c0,3.264-1.306,3.737-2.786,3.737h-8.566v-7.003H28.841z M29.556,46.303h-8.674v-8.387h9.134
		c0,0,3.31-0.044,3.31,4.309C33.325,45.895,30.852,46.275,29.556,46.303z"/>
	<path class="st0" d="M53.281,28.481c-12.067,0-12.059,12.056-12.059,12.056s-0.829,11.998,12.059,11.998
		c0,0,10.736,0.613,10.736-8.348h-5.521c0,0,0.181,3.377-5.031,3.377c0,0-5.524,0.369-5.524-5.463h16.264
		C64.204,42.102,65.982,28.481,53.281,28.481z M47.879,37.916c0,0,0.677-4.837,5.525-4.837c4.847,0,4.784,4.837,4.784,4.837H47.879z
		"/>
	<rect x="46.528" y="22.344" class="st0" width="12.948" height="3.863"/>
</g>
</svg>