<!-- Generator: Adobe Illustrator 19.0.0, SVG Export Plug-In  -->
<svg version="1.1"
	 xmlns="http://www.w3.org/2000/svg" xmlns:xlink="http://www.w3.org/1999/xlink" xmlns:a="http://ns.adobe.com/AdobeSVGViewerExtensions/3.0/"
	 x="0px" y="0px" width="953.963px" height="123.033px" viewBox="0 0 953.963 123.033"
	 style="enable-background:new 0 0 953.963 123.033;" xml:space="preserve">
<style type="text/css">
	.st0{fill:#FEE000;}
</style>
<defs>
</defs>
<g id="XMLID_15_">
	<g id="XMLID_17_">
		<path id="XMLID_62_" d="M153.691,54.796l-3.163-5.407l12.554-15.457l26.38-31.909h-0.464h-20.02h-1.645L141.628,34.25
			l-0.003-0.005l-12.54,15.676l0.019,0.032l-6.834,8.568l-4.137,5.005c-0.181-0.183-0.368-0.361-0.554-0.54
			c-4.522-4.34-10.585-7.262-18.205-8.753c-1.312-0.257-2.67-0.471-4.074-0.643c-0.901-0.102-1.759-0.202-2.597-0.301
			c-1.869-0.222-3.592-0.437-5.147-0.646c-2.252-0.301-4.174-0.59-5.766-0.865c-6.096-0.933-10.462-2.883-13.098-5.849
			c-2.636-2.966-3.954-6.15-3.954-9.556c0-5.711,1.949-9.994,5.849-12.851c3.899-2.855,8.649-4.284,14.251-4.284
			c4.942,0,9.786,0.759,14.536,2.254c0.317,0.1,0.635,0.193,0.951,0.299c4.542,1.531,8.815,3.487,12.825,5.861l4.429-5.553
			l6.937-8.697c-2.226-1.463-4.541-2.819-6.937-4.075c-3.486-1.828-7.147-3.443-10.994-4.833c-2.347-0.848-4.752-1.537-7.211-2.08
			c-4.391-0.97-8.96-1.462-13.712-1.462c-12.412,0-22.036,3.295-28.873,9.885S46.532,25.829,46.532,36.044
			c0,8.732,2.718,16.187,8.155,22.365s13.345,9.982,23.724,11.409c3.13,0.44,5.876,0.824,8.238,1.153
			c2.361,0.33,4.914,0.659,7.661,0.989c1.855,0.244,3.537,0.622,5.063,1.122c7.053,2.309,10.589,7.341,10.589,15.106
			c0,4.998-2.115,9.034-6.343,12.109c-1.271,0.924-2.688,1.707-4.246,2.353c-3.628,1.505-8.031,2.26-13.218,2.26
			c-6.425,0-12.577-1.098-18.452-3.295c-5.877-2.196-11.067-5.107-15.569-8.732l-12.027,13.674
			c12.521,10.985,27.815,16.475,45.884,16.475c4.83,0,9.29-0.431,13.383-1.292c6.797-1.43,12.579-4.047,17.344-7.852
			c0.296-0.237,0.577-0.484,0.861-0.728c7.051-6.044,10.589-14.363,10.589-24.973c0-3.535-0.502-6.937-1.502-10.206l11.049-13.365
			l33.718,57.427h0.021h21.583h0.141L153.691,54.796z"/>
		<g id="XMLID_18_">
			<path id="XMLID_60_" d="M261.002,1.302h20.962l11.819,35.262l11.77-35.262h21.504v3.273h-4.666c-1.155,0-1.951,0.211-2.387,0.633
				c-0.436,0.422-0.654,1.15-0.654,2.182v39.767c0,1.009,0.235,1.702,0.707,2.076c0.707,0.563,1.662,0.845,2.863,0.845h4.136v3.273
				h-26.499v-3.273h4.997c0.915,0,1.612-0.258,2.094-0.774c0.481-0.515,0.721-1.232,0.721-2.147V4.575l-16.539,48.776h-3.112
				L272.228,4.153v38.042c0,2.182,0.692,3.971,2.076,5.367c1.384,1.395,3.39,2.234,6.018,2.516v3.273h-19.32v-3.273
				c2.44-0.211,4.334-1.067,5.683-2.569c1.349-1.501,2.024-3.414,2.024-5.736V8.129c0-1.43-0.246-2.38-0.739-2.851
				c-0.493-0.469-1.443-0.704-2.851-0.704h-4.117V1.302z"/>
			<path id="XMLID_57_" d="M355.891,0l19.517,46.699c0.563,1.315,1.173,2.206,1.831,2.675c0.658,0.47,1.527,0.704,2.606,0.704h1.902
				v3.273h-24.423v-3.273h2.287c1.806,0,3.05-0.198,3.73-0.598c0.68-0.398,1.021-0.926,1.021-1.584c0-0.515-0.141-1.113-0.422-1.795
				l-4.014-9.643h-19.486l-1.85,4.399c-0.776,1.83-1.163,3.191-1.163,4.082c0,1.526,0.563,2.763,1.692,3.712
				c1.128,0.952,2.668,1.426,4.619,1.426h1.657v3.273h-19.778v-3.273h1.13c1.272,0,2.39-0.398,3.355-1.197
				c1.365-1.126,2.424-2.569,3.178-4.329L351.941,0H355.891z M350.233,13.176l-8.342,19.834h16.598L350.233,13.176z"/>
			<path id="XMLID_54_" d="M382.63,1.302h27.168c4.41,0,8.006,0.569,10.786,1.706s4.85,2.684,6.211,4.641
				c1.361,1.958,2.041,4.133,2.041,6.525c0,3.822-1.713,6.916-5.138,9.284c-2.604,1.806-6.616,2.979-12.036,3.516
				c2.718,0.448,4.81,1.16,6.275,2.135c1.465,0.977,2.76,2.43,3.884,4.358c1.482,2.534,2.692,5.573,3.633,9.115
				c0.588,2.276,1.104,3.708,1.551,4.293c0.446,0.587,0.95,0.88,1.513,0.88c1.548,0,2.475-2.052,2.78-6.159h3.097
				c-0.235,4.364-1.208,7.49-2.921,9.378c-1.713,1.889-4.129,2.834-7.25,2.834c-2.229,0-4.018-0.457-5.367-1.372
				c-1.349-0.915-2.375-2.252-3.079-4.012c-0.422-1.008-1.009-3.378-1.76-7.109c-0.869-4.364-1.648-7.296-2.34-8.798
				c-0.693-1.501-1.59-2.615-2.692-3.343c-1.103-0.726-2.463-1.091-4.082-1.091h-3.836v19.179c0,0.845,0.246,1.491,0.739,1.936
				c0.704,0.587,1.525,0.88,2.463,0.88h4.716v3.273H382.63v-3.273h4.082c1.056,0,1.853-0.276,2.393-0.826
				c0.539-0.552,0.809-1.32,0.809-2.306V7.707c0-1.078-0.246-1.871-0.739-2.375c-0.493-0.505-1.197-0.757-2.112-0.757h-4.434V1.302z
				 M401.07,24.916h4.399c3.894,0,6.968-0.997,9.22-2.991c1.689-1.525,2.534-4.094,2.534-7.707c0-3.331-0.833-5.766-2.499-7.303
				c-1.666-1.536-4.552-2.304-8.657-2.304c-2.206,0-3.59,0.241-4.153,0.722c-0.563,0.48-0.845,1.554-0.845,3.219V24.916z"/>
			<path id="XMLID_52_" d="M437.778,1.302h45.503l1.161,19.778h-3.202c-0.751-4.223-1.724-7.518-2.921-9.889
				c-1.197-2.369-2.563-4.053-4.1-5.051c-1.537-0.997-3.22-1.495-5.05-1.495c-1.056,0-1.83,0.217-2.323,0.65
				c-0.493,0.435-0.739,1.063-0.739,1.883v40.259c0,0.774,0.24,1.408,0.721,1.9c0.481,0.493,1.061,0.739,1.742,0.739h5.912v3.273
				h-27.837v-3.273h5.631c0.845,0,1.513-0.241,2.006-0.722c0.493-0.48,0.739-1.119,0.739-1.917V7.39c0-0.938-0.253-1.63-0.757-2.076
				c-0.505-0.445-1.296-0.669-2.375-0.669c-5.983,0-10.03,5.479-12.141,16.435h-3.097L437.778,1.302z"/>
			<path id="XMLID_50_" d="M486.029,1.302h26.675v3.273h-4.821c-1.033,0-1.784,0.206-2.252,0.617
				c-0.469,0.41-0.704,1.015-0.704,1.812v40.295c0,0.939,0.246,1.608,0.739,2.006c0.633,0.517,1.548,0.774,2.745,0.774h4.293v3.273
				h-26.675v-3.273h4.082c1.408,0,2.399-0.234,2.974-0.704c0.574-0.469,0.862-1.161,0.862-2.076V7.461
				c0-0.985-0.264-1.712-0.792-2.182c-0.528-0.469-1.355-0.704-2.481-0.704h-4.645V1.302z"/>
			<path id="XMLID_48_" d="M515.135,1.302h16.153l28.189,35.684V12.739c0-2.393-0.681-4.31-2.041-5.755
				c-1.361-1.441-3.297-2.245-5.807-2.41V1.302h19.004v3.273c-2.651,0.282-4.552,1.073-5.701,2.376
				c-1.15,1.301-1.724,3.232-1.724,5.788v40.611h-4.069l-32.073-41.063v28.439c0,3.257,0.745,5.631,2.235,7.119
				c1.489,1.488,3.337,2.233,5.543,2.233h0.88v3.273h-21.009v-3.273h1.443c2.064,0,3.801-0.819,5.208-2.461
				c1.408-1.64,2.112-3.749,2.112-6.326V7.693c-1.572-2.078-3.578-3.118-6.018-3.118h-2.323V1.302z"/>
			<path id="XMLID_46_" d="M294.398,73.206l3.273-4.645h2.499l0.317,17.983h-3.167c-1.643-5.161-3.977-9.026-7.003-11.596
				c-3.026-2.568-6.37-3.853-10.03-3.853c-3.121,0-5.66,0.85-7.619,2.548c-1.959,1.699-2.939,3.732-2.939,6.098
				c0,1.406,0.386,2.696,1.16,3.867c0.773,1.171,2.021,2.173,3.744,3.005s4.74,1.692,9.051,2.58
				c5.037,1.053,8.521,2.002,10.448,2.846c3.056,1.361,5.348,3.162,6.877,5.401c1.528,2.24,2.292,4.968,2.292,8.18
				c0,4.809-1.654,8.645-4.962,11.506c-3.989,3.447-8.927,5.172-14.816,5.172c-5.42,0-10.37-1.888-14.851-5.666l-4.117,5.138h-2.604
				v-19.285h3.097c3.069,11.004,9.303,16.505,18.701,16.505c3.843,0,6.831-0.885,8.963-2.655c2.132-1.769,3.199-3.979,3.199-6.629
				c0-1.852-0.469-3.405-1.406-4.659c-0.937-1.254-2.39-2.268-4.357-3.042c-1.078-0.422-3.749-1.09-8.012-2.005
				c-5.741-1.265-9.836-2.573-12.287-3.92c-2.451-1.349-4.25-3.001-5.4-4.959c-1.149-1.958-1.723-4.344-1.723-7.157
				c0-4.737,1.589-8.599,4.768-11.588c3.178-2.99,7.443-4.485,12.792-4.485C285.425,67.892,290.128,69.664,294.398,73.206z"/>
			<path id="XMLID_44_" d="M303.094,69.194h25.479v3.273h-2.78c-1.9,0-3.162,0.189-3.783,0.563
				c-0.622,0.376-0.933,0.869-0.933,1.478c0,0.563,0.263,1.502,0.787,2.815l13.061,31.532l10.701-26.922
				c0.714-1.806,1.071-3.484,1.071-5.032c0-1.454-0.434-2.556-1.302-3.308c-0.869-0.75-2.182-1.126-3.941-1.126h-2.358v-3.273h20.13
				v3.273h-1.513c-1.291,0-2.446,0.446-3.466,1.337c-1.021,0.892-2,2.487-2.939,4.786l-17.711,43.779h-4.2l-19.053-45.996
				c-0.633-1.571-1.361-2.615-2.182-3.132c-0.821-0.515-2.147-0.774-3.977-0.774h-1.091V69.194z"/>
			<path id="XMLID_42_" d="M358.242,69.194h45.327l1.021,18.194h-3.097c-0.728-4.293-1.636-7.385-2.727-9.274
				c-1.091-1.888-2.523-3.301-4.293-4.24c-1.772-0.938-4.089-1.408-6.95-1.408h-7.109c-1.103,0-1.9,0.217-2.393,0.65
				c-0.493,0.435-0.739,1.039-0.739,1.813v18.053h2.428c2.791,0,4.956-0.797,6.493-2.393c1.536-1.595,2.446-4.164,2.727-7.707h3.167
				v24.212h-3.167c-0.211-4.012-1.091-6.838-2.639-8.481c-1.548-1.641-3.883-2.463-7.003-2.463h-2.006v19.25
				c0,0.845,0.246,1.443,0.739,1.795c0.75,0.517,1.83,0.774,3.238,0.774h6.264c4.293,0,7.801-1.372,10.522-4.117
				c2.721-2.745,4.41-6.885,5.068-12.423h3.167l-0.774,19.813h-47.262v-3.273h4.68c1.056,0,1.859-0.269,2.411-0.809
				c0.551-0.539,0.827-1.267,0.827-2.182V74.93c0-0.845-0.276-1.465-0.827-1.865c-0.552-0.398-1.543-0.598-2.974-0.598h-4.117
				V69.194z"/>
			<path id="XMLID_40_" d="M410.188,69.194h16.153l28.189,35.684V80.631c0-2.393-0.681-4.31-2.041-5.755
				c-1.361-1.441-3.297-2.245-5.807-2.41v-3.273h19.004v3.273c-2.651,0.282-4.552,1.073-5.701,2.376
				c-1.15,1.301-1.724,3.232-1.724,5.788v40.611h-4.069l-32.073-41.063v28.439c0,3.257,0.745,5.631,2.235,7.119
				c1.489,1.488,3.337,2.233,5.543,2.233h0.88v3.273h-21.009v-3.273h1.443c2.064,0,3.801-0.819,5.208-2.461
				c1.408-1.64,2.111-3.749,2.111-6.326V75.585c-1.572-2.078-3.578-3.118-6.018-3.118h-2.323V69.194z"/>
			<path id="XMLID_38_" d="M500.352,73.206l3.273-4.645h2.499l0.317,17.983h-3.167c-1.643-5.161-3.977-9.026-7.003-11.596
				c-3.026-2.568-6.37-3.853-10.03-3.853c-3.121,0-5.66,0.85-7.619,2.548c-1.959,1.699-2.939,3.732-2.939,6.098
				c0,1.406,0.386,2.696,1.16,3.867c0.773,1.171,2.021,2.173,3.744,3.005s4.74,1.692,9.051,2.58
				c5.037,1.053,8.521,2.002,10.448,2.846c3.056,1.361,5.348,3.162,6.877,5.401c1.528,2.24,2.292,4.968,2.292,8.18
				c0,4.809-1.654,8.645-4.962,11.506c-3.989,3.447-8.927,5.172-14.816,5.172c-5.42,0-10.37-1.888-14.851-5.666l-4.117,5.138h-2.604
				v-19.285h3.097c3.069,11.004,9.303,16.505,18.701,16.505c3.843,0,6.831-0.885,8.963-2.655c2.132-1.769,3.199-3.979,3.199-6.629
				c0-1.852-0.469-3.405-1.406-4.659c-0.937-1.254-2.39-2.268-4.357-3.042c-1.078-0.422-3.749-1.09-8.012-2.005
				c-5.741-1.265-9.836-2.573-12.287-3.92c-2.451-1.349-4.25-3.001-5.4-4.959c-1.149-1.958-1.723-4.344-1.723-7.157
				c0-4.737,1.589-8.599,4.768-11.588c3.178-2.99,7.443-4.485,12.792-4.485C491.378,67.892,496.082,69.664,500.352,73.206z"/>
			<path id="XMLID_36_" d="M545.541,73.206l3.273-4.645h2.499l0.317,17.983h-3.167c-1.643-5.161-3.977-9.026-7.003-11.596
				c-3.026-2.568-6.37-3.853-10.03-3.853c-3.121,0-5.66,0.85-7.619,2.548c-1.959,1.699-2.939,3.732-2.939,6.098
				c0,1.406,0.386,2.696,1.16,3.867c0.773,1.171,2.021,2.173,3.744,3.005s4.74,1.692,9.051,2.58
				c5.037,1.053,8.521,2.002,10.448,2.846c3.056,1.361,5.348,3.162,6.877,5.401c1.528,2.24,2.292,4.968,2.292,8.18
				c0,4.809-1.654,8.645-4.962,11.506c-3.989,3.447-8.927,5.172-14.816,5.172c-5.419,0-10.37-1.888-14.851-5.666l-4.117,5.138
				h-2.604v-19.285h3.097c3.069,11.004,9.303,16.505,18.701,16.505c3.843,0,6.831-0.885,8.963-2.655
				c2.132-1.769,3.199-3.979,3.199-6.629c0-1.852-0.469-3.405-1.406-4.659c-0.937-1.254-2.39-2.268-4.357-3.042
				c-1.078-0.422-3.749-1.09-8.012-2.005c-5.741-1.265-9.836-2.573-12.287-3.92c-2.451-1.349-4.25-3.001-5.4-4.959
				c-1.149-1.958-1.723-4.344-1.723-7.157c0-4.737,1.589-8.599,4.768-11.588c3.179-2.99,7.443-4.485,12.792-4.485
				C536.567,67.892,541.271,69.664,545.541,73.206z"/>
			<path id="XMLID_33_" d="M584.853,67.892c4.903,0,9.425,1.184,13.566,3.552c4.141,2.369,7.366,5.598,9.678,9.69
				c2.311,4.091,3.466,8.704,3.466,13.839c0,7.807-2.551,14.313-7.654,19.519c-5.103,5.204-11.432,7.807-18.986,7.807
				c-5.021,0-9.519-1.184-13.496-3.552c-3.977-2.368-7.115-5.563-9.414-9.583c-2.299-4.022-3.449-8.692-3.449-14.016
				c0-7.9,2.522-14.419,7.566-19.554C571.174,70.459,577.415,67.892,584.853,67.892z M585.064,71.27
				c-2.792,0-5.215,0.769-7.267,2.303c-2.053,1.536-3.684,4.016-4.892,7.438c-1.208,3.423-1.812,8.111-1.812,14.065
				c0,6.26,0.557,11.002,1.672,14.226c1.114,3.222,2.739,5.608,4.874,7.155c2.135,1.547,4.621,2.321,7.461,2.321
				c4.199,0,7.554-1.799,10.065-5.397c2.51-3.599,3.766-9.852,3.766-18.761c0-6.236-0.54-10.919-1.619-14.049
				c-1.08-3.131-2.687-5.463-4.821-6.999C590.354,72.039,587.879,71.27,585.064,71.27z"/>
			<path id="XMLID_31_" d="M614.874,69.194h16.153l28.189,35.684V80.631c0-2.393-0.681-4.31-2.041-5.755
				c-1.361-1.441-3.297-2.245-5.807-2.41v-3.273h19.004v3.273c-2.652,0.282-4.552,1.073-5.701,2.376
				c-1.15,1.301-1.724,3.232-1.724,5.788v40.611h-4.07l-32.072-41.063v28.439c0,3.257,0.745,5.631,2.235,7.119
				c1.489,1.488,3.336,2.233,5.542,2.233h0.88v3.273h-21.009v-3.273h1.443c2.064,0,3.801-0.819,5.208-2.461
				c1.408-1.64,2.112-3.749,2.112-6.326V75.585c-1.572-2.078-3.578-3.118-6.018-3.118h-2.323V69.194z"/>
			<path id="XMLID_29_" d="M690.472,69.194h25.76v3.273h-4.203c-1.356,0-2.278,0.211-2.767,0.635
				c-0.491,0.422-0.736,1.115-0.736,2.078v23.01l17.19-19.81c0.974-1.149,1.461-2.204,1.461-3.167c0-0.821-0.305-1.443-0.915-1.865
				c-0.845-0.586-1.983-0.88-3.414-0.88h-1.443v-3.273h21.432v3.273H741.5c-1.924,0-3.708,0.481-5.349,1.443
				c-2.417,1.432-4.834,3.554-7.249,6.37l-6.626,7.655l15.424,26.622c0.656,1.126,1.43,1.936,2.323,2.428
				c1.173,0.657,2.334,0.985,3.484,0.985h2.041v3.273h-25.549v-3.273h2.604c1.408,0,2.416-0.187,3.026-0.563
				c0.61-0.374,0.915-0.809,0.915-1.302c0-0.282-0.108-0.574-0.327-0.88l-11.076-19.047l-6.616,7.645v11.402
				c0,0.915,0.241,1.601,0.721,2.059c0.481,0.456,1.144,0.686,1.989,0.686h4.716v3.273h-25.479v-3.273h3.695
				c1.078,0,1.883-0.234,2.41-0.704c0.529-0.469,0.793-1.149,0.793-2.041V74.93c0-0.821-0.252-1.437-0.756-1.847
				c-0.505-0.411-1.32-0.617-2.447-0.617h-3.695V69.194z"/>
			<path id="XMLID_26_" d="M772.375,67.892l19.517,46.699c0.563,1.315,1.173,2.206,1.831,2.675c0.657,0.47,1.526,0.704,2.606,0.704
				h1.902v3.273h-24.423v-3.273h2.287c1.806,0,3.049-0.198,3.73-0.598c0.68-0.398,1.021-0.926,1.021-1.584
				c0-0.515-0.141-1.113-0.422-1.795l-4.015-9.643h-19.485l-1.851,4.399c-0.776,1.83-1.163,3.191-1.163,4.082
				c0,1.526,0.563,2.763,1.692,3.712c1.128,0.952,2.668,1.426,4.619,1.426h1.657v3.273h-19.778v-3.273h1.13
				c1.271,0,2.389-0.398,3.354-1.197c1.364-1.126,2.424-2.569,3.177-4.329l18.661-44.553H772.375z M766.717,81.068l-8.34,19.834
				h16.598L766.717,81.068z"/>
			<path id="XMLID_24_" d="M797.847,72.467v-3.273h26.711v3.273h-4.505c-1.291,0-2.195,0.246-2.71,0.739
				c-0.517,0.493-0.774,1.291-0.774,2.393v38.711c0,1.572,0.246,2.575,0.739,3.008c0.493,0.435,1.654,0.652,3.484,0.652h7.496
				c2.791,0,5.396-1.325,7.813-3.977c2.416-2.651,4.269-6.885,5.56-12.704h3.167l-1.196,19.954h-45.784v-3.273h4.575
				c1.008,0,1.771-0.258,2.287-0.774c0.515-0.515,0.774-1.243,0.774-2.182V75.212c0-0.961-0.265-1.66-0.791-2.095
				c-0.529-0.434-1.439-0.65-2.728-0.65H797.847z"/>
			<path id="XMLID_21_" d="M846.52,69.194h45.327l1.021,18.194h-3.097c-0.728-4.293-1.636-7.385-2.728-9.274
				c-1.09-1.888-2.521-3.301-4.293-4.24c-1.771-0.938-4.088-1.408-6.95-1.408h-7.109c-1.104,0-1.9,0.217-2.393,0.65
				c-0.493,0.435-0.739,1.039-0.739,1.813v18.053h2.428c2.791,0,4.956-0.797,6.494-2.393c1.536-1.595,2.445-4.164,2.727-7.707h3.167
				v24.212h-3.167c-0.211-4.012-1.091-6.838-2.639-8.481c-1.548-1.641-3.884-2.463-7.003-2.463h-2.006v19.25
				c0,0.845,0.246,1.443,0.739,1.795c0.75,0.517,1.83,0.774,3.238,0.774h6.264c4.293,0,7.8-1.372,10.522-4.117
				c2.721-2.745,4.41-6.885,5.068-12.423h3.167l-0.774,19.813H846.52v-3.273h4.681c1.056,0,1.859-0.269,2.41-0.809
				c0.552-0.539,0.828-1.267,0.828-2.182V74.93c0-0.845-0.276-1.465-0.828-1.865c-0.55-0.398-1.543-0.598-2.973-0.598h-4.117V69.194
				z M865.207,65.253l-0.985-0.809l5.701-8.129c1.806-2.58,3.66-3.871,5.56-3.871c1.056,0,2.012,0.393,2.869,1.178
				c0.856,0.787,1.284,1.615,1.284,2.482c0,0.939-0.311,1.765-0.932,2.482c-0.622,0.715-2.024,1.554-4.206,2.516L865.207,65.253z"/>
			<path id="XMLID_19_" d="M898.466,69.194h16.153l28.189,35.684V80.631c0-2.393-0.681-4.31-2.041-5.755
				c-1.361-1.441-3.297-2.245-5.807-2.41v-3.273h19.004v3.273c-2.652,0.282-4.552,1.073-5.701,2.376
				c-1.15,1.301-1.724,3.232-1.724,5.788v40.611h-4.07l-32.072-41.063v28.439c0,3.257,0.745,5.631,2.235,7.119
				c1.489,1.488,3.336,2.233,5.542,2.233h0.88v3.273h-21.009v-3.273h1.443c2.064,0,3.801-0.819,5.208-2.461
				c1.408-1.64,2.112-3.749,2.112-6.326V75.585c-1.572-2.078-3.578-3.118-6.018-3.118h-2.323V69.194z"/>
		</g>
	</g>
	<rect id="XMLID_16_" y="0.902" class="st0" width="17.848" height="121.396"/>
</g>
</svg>