<!-- Generator: Adobe Illustrator 19.0.0, SVG Export Plug-In  -->
<svg version="1.1"
	 xmlns="http://www.w3.org/2000/svg" xmlns:xlink="http://www.w3.org/1999/xlink" xmlns:a="http://ns.adobe.com/AdobeSVGViewerExtensions/3.0/"
	 x="0px" y="0px" width="666.002px" height="642.217px" viewBox="0 0 666.002 642.217"
	 style="enable-background:new 0 0 666.002 642.217;" xml:space="preserve">
<style type="text/css">
	.st0{fill:#2A2C7A;}
</style>
<defs>
</defs>
<g id="XMLID_19_">
	<path id="XMLID_23_" class="st0" d="M217.806,257.115L217.806,257.115c-1.817,1.881-5.261,4.436-5.558,4.655
		c-14.223,9.604-71.159,42.659-124.426-2.413c-40.177,40.177-85.08,85.08-85.08,85.08v127.62h91.816L0,642.217l6.567-2.715
		l0.125-0.224c19.071-7.743,75.527-26.206,123.671,2.939c40.177-40.177,85.08-85.08,85.08-85.08v-85.08v-42.54h-92.022
		l98.052-176.198L217.806,257.115z M130.362,472.056c0,1.994,0,18.428,0,127.62c0,0-69.742-17.802-115.876,25.594l85.261-153.214
		H130.362z M118.198,429.517H87.822v-127.62c0,0,72.649,19.113,118.253-30.519L118.198,429.517z"/>
	<path id="XMLID_22_" class="st0" d="M214.072,642.217l42.814-42.814V428.144V85.629h-14.646c-3.642,0-4.316-5.166-0.798-6.108
		C279.162,69.421,342.516,45.66,342.516,0c0,105.45,0,299.701,0,299.701v342.516C342.516,642.217,213.279,642.217,214.072,642.217z"
		/>
	<path id="XMLID_21_" class="st0" d="M666.002,259.357c-72.022,74.356-237.858,0-237.858,0l-77.312,136.691
		c-5.455,9.818-8.317,20.865-8.317,32.097v0l128.443,214.072h85.629L401.385,331.072l0,0
		C563.648,365.09,644.627,287.97,666.002,259.357z"/>
</g>
</svg>