<!-- Generator: Adobe Illustrator 19.0.0, SVG Export Plug-In  -->
<svg version="1.1"
	 xmlns="http://www.w3.org/2000/svg" xmlns:xlink="http://www.w3.org/1999/xlink" xmlns:a="http://ns.adobe.com/AdobeSVGViewerExtensions/3.0/"
	 x="0px" y="0px" width="508.043px" height="57.803px" viewBox="0 0 508.043 57.803"
	 style="enable-background:new 0 0 508.043 57.803;" xml:space="preserve">
<defs>
</defs>
<g id="XMLID_15_">
	<path id="XMLID_17_" d="M23.544,46.572H17.55V29.076c0-3.996-1.566-5.454-3.888-5.454c-1.944,0-3.618,1.296-4.482,3.186v19.764
		H3.132V19.139h5.4v2.916H8.64c1.674-2.268,4.104-3.402,6.858-3.402c2.916,0,5.238,1.296,6.534,3.996
		c1.674-2.484,4.32-3.996,7.56-3.996c5.292,0,8.316,3.294,8.316,10.422v17.496h-5.994V29.076c0-3.51-1.296-5.454-4.104-5.454
		c-2.43,0-4.266,1.566-4.266,5.454V46.572z"/>
	<path id="XMLID_19_" d="M64.689,37.176c0,5.562-3.78,9.882-11.016,9.882c-7.236,0-10.962-4.32-10.962-9.882v-8.532
		c0-5.562,3.726-9.99,10.962-9.99c7.344,0,11.016,4.32,11.016,9.99V37.176z M48.759,36.906c0,3.618,1.62,5.616,4.914,5.616
		c3.456,0,4.968-1.998,4.968-5.616v-8.046c0-3.564-1.512-5.616-4.968-5.616c-3.402,0-4.914,2.052-4.914,5.616V36.906z"/>
	<path id="XMLID_22_" d="M75.865,44.142h-0.108l-0.27,2.43h-5.292V6.233h6.048v15.174h0.108c1.729-1.836,4.158-2.754,7.074-2.754
		c5.562,0,8.64,3.996,8.64,10.422v7.56c0,6.318-3.078,10.314-9.072,10.314C80.185,46.95,77.701,46.032,75.865,44.142z M76.243,39.66
		c1.08,1.566,2.646,2.592,5.076,2.592c3.132,0,4.698-1.836,4.698-5.616v-7.452c0-3.672-1.512-5.562-4.59-5.562
		c-2.376,0-4.158,1.188-5.184,2.592V39.66z"/>
	<path id="XMLID_25_" d="M96.76,39.66h6.534v6.912H96.76V39.66z"/>
	<path id="XMLID_27_" d="M127.7,31.992h-7.83v-4.482h7.83v-9.828h4.482v9.828h8.046v4.482h-8.046v9.828H127.7V31.992z"/>
	<path id="XMLID_29_" d="M160.8,46.572v-7.29h-17.497V35.07l17.172-27.648h6.102v26.73h4.644l-0.486,5.13h-4.158v7.29H160.8z
		 M160.8,34.151l0.324-19.062h-0.108l-10.962,19.062H160.8z"/>
	<path id="XMLID_32_" d="M198.058,15.143l-4.374,1.944c-1.242-3.456-3.348-4.806-6.372-4.806c-4.698,0-6.858,3.132-6.858,8.208v3.78
		h0.108c1.89-1.62,4.536-2.43,7.506-2.43c7.668,0,10.746,4.32,10.746,11.664c0,9.234-4.59,13.608-12.312,13.608
		c-7.668,0-12.258-4.644-12.258-13.014V21.191c0-8.262,4.752-14.31,12.744-14.31C192.226,6.881,196.384,9.689,198.058,15.143z
		 M180.453,30.695v4.05c0,4.752,2.484,6.912,6.21,6.912c3.996,0,5.94-2.43,5.94-7.992c0-4.482-1.728-6.696-5.832-6.696
		C183.315,26.969,180.453,28.374,180.453,30.695z"/>
	<path id="XMLID_35_" d="M217.494,46.572l14.148-33.643H213.12V7.421h25.326v4.914l-13.932,34.236H217.494z"/>
	<path id="XMLID_37_" d="M266.685,33.72c0,8.208-4.428,13.392-12.474,13.392c-8.1,0-12.474-5.184-12.474-13.392V20.381
		c0-8.262,4.374-13.5,12.474-13.5c8.046,0,12.474,5.238,12.474,13.5V33.72z M247.947,33.72c0,5.562,2.052,7.938,6.264,7.938
		s6.264-2.376,6.264-7.938V20.381c0-5.454-2.052-7.884-6.264-7.884s-6.264,2.43-6.264,7.884V33.72z"/>
	<path id="XMLID_40_" d="M271.326,35.124c0-4.698,1.782-7.884,5.509-9.342v-0.108c-3.078-1.404-4.591-4.32-4.591-8.37
		c0-6.102,3.349-10.422,11.881-10.422s11.826,4.32,11.826,10.422c0,4.05-1.513,6.966-4.591,8.37v0.108
		c3.727,1.458,5.509,4.644,5.509,9.342c0,8.424-4.536,11.988-12.744,11.988C275.916,47.112,271.326,43.548,271.326,35.124z
		 M284.125,28.536c-4.051,0-6.48,1.512-6.48,6.264c0,5.346,2.16,7.074,6.48,7.074c4.266,0,6.479-1.62,6.479-7.074
		C290.604,30.047,288.175,28.536,284.125,28.536z M278.185,17.843c0,4.374,1.782,5.994,5.94,5.994c4.157,0,5.939-1.62,5.939-5.994
		c0-4.266-1.728-5.832-5.939-5.832C279.912,12.011,278.185,13.577,278.185,17.843z"/>
	<path id="XMLID_44_" d="M320.732,24h2.862c3.888,0,6.103-1.62,6.103-5.94c0-4.104-1.944-5.832-5.509-5.832
		c-3.401,0-5.67,1.836-6.912,5.616l-4.752-1.674c1.62-5.562,5.994-9.288,12.259-9.288c7.83,0,11.394,4.698,11.394,10.422
		c0,4.374-1.728,7.452-5.292,8.802v0.108c3.996,1.08,6.048,3.996,6.048,8.964c0,7.992-4.59,11.934-12.366,11.934
		c-6.102,0-10.476-2.808-12.312-8.586l4.644-1.836c1.351,3.51,3.996,5.238,7.29,5.238c4.429,0,6.103-2.484,6.103-7.128
		c0-4.536-2.43-5.94-6.588-5.94h-2.971V24z"/>
	<path id="XMLID_46_" d="M349.243,24h2.862c3.888,0,6.102-1.62,6.102-5.94c0-4.104-1.944-5.832-5.508-5.832
		c-3.402,0-5.67,1.836-6.912,5.616l-4.752-1.674c1.62-5.562,5.994-9.288,12.258-9.288c7.83,0,11.395,4.698,11.395,10.422
		c0,4.374-1.729,7.452-5.292,8.802v0.108c3.996,1.08,6.048,3.996,6.048,8.964c0,7.992-4.59,11.934-12.366,11.934
		c-6.103,0-10.477-2.808-12.313-8.586l4.645-1.836c1.35,3.51,3.996,5.238,7.29,5.238c4.428,0,6.102-2.484,6.102-7.128
		c0-4.536-2.43-5.94-6.588-5.94h-2.97V24z"/>
	<path id="XMLID_48_" d="M406.75,33.72c0,8.208-4.428,13.392-12.474,13.392c-8.101,0-12.475-5.184-12.475-13.392V20.381
		c0-8.262,4.374-13.5,12.475-13.5c8.046,0,12.474,5.238,12.474,13.5V33.72z M388.012,33.72c0,5.562,2.053,7.938,6.265,7.938
		s6.264-2.376,6.264-7.938V20.381c0-5.454-2.052-7.884-6.264-7.884s-6.265,2.43-6.265,7.884V33.72z"/>
	<path id="XMLID_51_" d="M435.854,15.143l-4.374,1.944c-1.242-3.456-3.349-4.806-6.372-4.806c-4.698,0-6.858,3.132-6.858,8.208v3.78
		h0.108c1.89-1.62,4.535-2.43,7.506-2.43c7.668,0,10.746,4.32,10.746,11.664c0,9.234-4.59,13.608-12.313,13.608
		c-7.668,0-12.258-4.644-12.258-13.014V21.191c0-8.262,4.752-14.31,12.744-14.31C430.022,6.881,434.181,9.689,435.854,15.143z
		 M418.25,30.695v4.05c0,4.752,2.484,6.912,6.21,6.912c3.996,0,5.94-2.43,5.94-7.992c0-4.482-1.729-6.696-5.832-6.696
		C421.112,26.969,418.25,28.374,418.25,30.695z"/>
	<path id="XMLID_54_" d="M476.674,15.143l-4.374,1.944c-1.242-3.456-3.348-4.806-6.372-4.806c-4.698,0-6.858,3.132-6.858,8.208v3.78
		h0.108c1.89-1.62,4.536-2.43,7.506-2.43c7.668,0,10.746,4.32,10.746,11.664c0,9.234-4.59,13.608-12.312,13.608
		c-7.668,0-12.259-4.644-12.259-13.014V21.191c0-8.262,4.752-14.31,12.744-14.31C470.842,6.881,475,9.689,476.674,15.143z
		 M459.069,30.695v4.05c0,4.752,2.484,6.912,6.211,6.912c3.996,0,5.939-2.43,5.939-7.992c0-4.482-1.728-6.696-5.832-6.696
		C461.932,26.969,459.069,28.374,459.069,30.695z"/>
	<path id="XMLID_57_" d="M482.396,26.969l1.619-19.548h20.791l-0.433,5.616h-15.39l-0.702,10.207c2.052-1.026,4.482-1.62,6.966-1.62
		c7.452,0,11.017,4.32,11.017,12.204c0,8.694-4.374,13.284-12.799,13.284c-5.67,0-10.151-2.916-11.771-8.694l4.752-1.782
		c1.188,3.618,3.834,5.292,6.696,5.292c4.752,0,6.588-2.7,6.588-8.046c0-5.076-2.106-7.02-6.696-7.02
		c-2.43,0-5.076,0.864-6.534,2.16L482.396,26.969z"/>
</g>
</svg>