<!-- Generator: Adobe Illustrator 19.0.0, SVG Export Plug-In  -->
<svg version="1.1"
	 xmlns="http://www.w3.org/2000/svg" xmlns:xlink="http://www.w3.org/1999/xlink" xmlns:a="http://ns.adobe.com/AdobeSVGViewerExtensions/3.0/"
	 x="0px" y="0px" width="4385.078px" height="899.372px" viewBox="0 0 4385.078 899.372"
	 style="enable-background:new 0 0 4385.078 899.372;" xml:space="preserve">
<defs>
</defs>
<g id="XMLID_15_">
	<path id="XMLID_17_" d="M12.798,186.278h89.958V96.136h24.854v90.143h89.958v24.669h-89.958v89.401h-24.854v-89.401H12.798V186.278
		z"/>
	<path id="XMLID_19_" d="M359.659,69.798h12.056v175.463h42.66v15.766h-42.66v39.508c0,3.463,1.359,6.245,4.081,8.347
		c3.956,2.846,8.532,4.266,13.726,4.266h15.766v13.911H302.346v-13.911h19.104c6.428,0,11.158-1.359,14.189-4.081
		c3.028-2.718,4.544-6.677,4.544-11.87v-36.169H235.202V243.25L359.659,69.798z M340.184,119.775l-89.586,125.485h89.586V119.775z"
		/>
	<path id="XMLID_22_" d="M471.518,205.383c9.646-12.858,19.783-22.071,30.419-27.636c10.633-5.564,22.318-8.347,35.056-8.347
		c20.524,0,37.745,6.955,51.656,20.866c13.91,13.911,20.866,31.502,20.866,52.769c0,25.597-8.226,46.865-24.669,63.805
		c-16.447,16.942-36.789,25.411-61.022,25.411c-17.064,0-32.273-4.544-45.628-13.633s-24.269-23.277-32.737-42.567
		c-8.471-19.29-12.705-41.794-12.705-67.515c0-27.821,5.193-53.047,15.58-75.676c10.387-22.628,23.648-39.6,39.785-50.913
		c16.137-11.314,32.983-16.972,50.543-16.972c18.053,0,33.387,4.947,45.999,14.838c10.509,8.04,15.766,17.685,15.766,28.935
		c0,7.544-2.318,13.726-6.955,18.549c-4.638,4.822-10.294,7.233-16.972,7.233c-6.185,0-11.471-2.04-15.858-6.121
		c-4.391-4.08-6.585-8.903-6.585-14.467c0-3.71,1.484-7.912,4.452-12.613c2.718-4.326,4.08-7.727,4.08-10.201
		c0-3.46-1.669-6.307-5.008-8.532c-4.451-2.843-10.572-4.266-18.362-4.266c-11.995,0-22.938,3.773-32.83,11.314
		c-9.894,7.543-18.27,20.495-25.132,38.857c-6.863,18.362-10.294,38.982-10.294,61.857
		C470.962,193.698,471.147,198.706,471.518,205.383z M526.791,187.577c-15.459,0-28.101,5.597-37.931,16.786
		c-9.83,11.192-14.746,26.926-14.746,47.204c0,22.011,4.759,38.829,14.282,50.45c9.521,11.624,21.638,17.436,36.354,17.436
		c14.59,0,26.339-5.501,35.241-16.508c8.903-11.004,13.354-27.451,13.354-49.338c0-23.245-4.112-40.063-12.334-50.45
		C552.787,192.771,541.38,187.577,526.791,187.577z"/>
	<path id="XMLID_25_" d="M739.564,65.161c12.117,3.092,25.226,4.637,39.322,4.637h115.367v8.532
		c-16.942,29.801-29.615,54.994-38.022,75.583c-8.411,20.588-14.778,40.28-19.104,59.074c-4.33,18.798-7.173,40.685-8.532,65.66
		c-1.237,20.651-2.411,33.418-3.524,38.302c-1.112,4.886-3.37,8.656-6.77,11.313c-3.402,2.658-7.822,3.988-13.262,3.988
		c-6.185,0-11.007-2.104-14.468-6.307c-3.463-4.202-5.193-10.818-5.193-19.846c0-8.037,1.42-18.085,4.266-30.141
		c2.844-12.057,9.335-30.077,19.476-54.067c13.477-32.148,25.161-57.435,35.056-75.86l25.597-47.112h-100.53
		c-7.419,0-12.954,2.597-16.601,7.79c-3.648,5.193-8.007,20.713-13.076,46.556H726.21L739.564,65.161z"/>
	<path id="XMLID_27_" d="M999.621,64.976c24.112,0,44.205,9.398,60.281,28.192c19.907,23.124,29.862,58.18,29.862,105.167
		c0,43.651-8.657,76.881-25.968,99.695c-17.313,22.813-38.208,34.221-62.691,34.221c-23.62,0-43.342-9.581-59.168-28.749
		c-19.785-24.112-29.677-58.919-29.677-104.425c0-43.277,9.335-77.716,28.008-103.313C955.229,75.24,975.014,64.976,999.621,64.976z
		 M1000.734,78.33c-16.322,0-29.06,7.822-38.209,23.463c-9.152,15.645-13.726,48.071-13.726,97.284
		c0,48.103,4.73,80.19,14.189,96.264c9.459,16.075,22.165,24.112,38.116,24.112c16.072,0,28.438-7.42,37.096-22.258
		c10.262-17.682,15.395-49.955,15.395-96.82c0-48.471-4.822-80.93-14.467-97.376C1029.483,86.555,1016.686,78.33,1000.734,78.33z"/>
	<path id="XMLID_30_" d="M1232.968,181.509c19.783,7.138,34.064,16.487,42.846,28.048c8.778,11.563,13.169,25.503,13.169,41.825
		c0,19.91-6.37,37.281-19.104,52.12c-16.447,19.168-39.879,28.749-70.297,28.749c-26.834,0-48.039-6.457-63.619-19.377
		c-15.581-12.92-23.371-29.021-23.371-48.309c0-14.462,4.48-27.104,13.447-37.922c8.964-10.815,24.452-19.997,46.463-27.538
		c-32.522-13.992-48.781-35.577-48.781-64.761c0-18.919,7.326-35.209,21.979-48.874c14.653-13.661,33.229-20.495,55.736-20.495
		c15.456,0,28.903,2.66,40.342,7.979c11.436,5.32,20.153,12.558,26.152,21.713c5.996,9.154,8.996,18.741,8.996,28.761
		C1276.927,146.685,1262.273,166.044,1232.968,181.509z M1186.413,204.293c-17.56,7.42-29.74,15.764-36.54,25.034
		c-6.802,9.274-10.201,20.646-10.201,34.122c0,17.558,5.162,31.187,15.487,40.89c10.323,9.706,25.193,14.558,44.608,14.558
		c20.524,0,36.476-4.852,47.854-14.561c11.375-9.705,17.063-22.535,17.063-38.486c0-14.468-4.915-25.411-14.745-32.83
		S1218.933,216.025,1186.413,204.293z M1218.687,176.691c12.983-7.422,21.701-14.751,26.152-21.99s6.677-16.734,6.677-28.488
		c0-15.465-4.391-27.405-13.169-35.818c-8.781-8.413-21.516-12.621-38.208-12.621c-16.201,0-28.813,3.93-37.838,11.79
		c-9.027,7.859-13.54,18.102-13.54,30.726c0,12.502,3.918,22.466,11.761,29.891C1168.363,157.604,1187.752,166.444,1218.687,176.691
		z"/>
	<path id="XMLID_34_" d="M1509.547,189.988c17.682,4.33,31.468,11.5,41.362,21.516c12.612,12.737,18.918,28.503,18.918,47.297
		c0,21.27-7.543,38.334-22.628,51.192c-17.188,14.839-39.571,22.258-67.144,22.258c-16.571,0-30.821-2.722-42.753-8.161
		c-11.935-5.439-20.866-12.798-26.802-22.072c-5.936-9.273-8.903-19.722-8.903-31.346c0-9.396,2.287-16.815,6.863-22.258
		c4.573-5.439,10.323-8.161,17.249-8.161c6.307,0,11.375,2.072,15.21,6.214c3.831,4.145,5.75,9.802,5.75,16.972
		c0,4.576-0.991,8.438-2.968,11.592c-1.979,3.153-5.443,6.092-10.387,8.811c-5.318,2.846-7.976,5.564-7.976,8.161
		c0,3.709,1.884,7.883,5.656,12.52c3.771,4.637,9.335,8.347,16.693,11.129c7.355,2.782,16.661,4.173,27.915,4.173
		c19.411,0,33.786-4.79,43.124-14.374c9.334-9.581,14.003-24.947,14.003-46.092c0-22.133-3.987-37.866-11.963-47.204
		c-7.976-9.335-19.817-14.004-35.52-14.004c-4.205,0-9.459,0.495-15.766,1.483c-5.071,0.742-8.718,1.113-10.943,1.113
		c-3.71,0-6.584-0.771-8.625-2.318c-2.04-1.545-3.061-3.492-3.061-5.843c0-2.597,0.957-4.605,2.875-6.028
		c1.916-1.42,5.037-2.133,9.367-2.133l10.201,0.371l8.903,0.371c15.702,0,27.512-4.011,35.426-12.036
		c7.912-8.021,11.871-20.429,11.871-37.215c0-20.614-3.773-35.272-11.314-43.976c-7.544-8.7-18.797-13.053-33.757-13.053
		c-13.726,0-24.669,2.466-32.83,7.398s-12.241,9.497-12.241,13.688c0,2.716,2.348,6.354,7.048,10.915
		c6.678,6.167,10.016,12.58,10.016,19.24c0,5.058-1.854,9.312-5.564,12.764c-3.709,3.454-8.471,5.179-14.281,5.179
		c-6.185,0-11.222-2.348-15.117-7.049c-3.895-4.697-5.842-11.25-5.842-19.66c0-13.105,4.697-24.729,14.096-34.87
		c13.354-14.343,32.459-21.516,57.313-21.516c23.246,0,41.794,6.245,55.644,18.733c13.848,12.49,20.773,27.946,20.773,46.369
		c0,13.233-3.741,24.669-11.221,34.314C1540.736,174.037,1527.846,182.569,1509.547,189.988z"/>
	<path id="XMLID_36_" d="M1705.613,189.988c17.682,4.33,31.468,11.5,41.362,21.516c12.612,12.737,18.918,28.503,18.918,47.297
		c0,21.27-7.543,38.334-22.628,51.192c-17.188,14.839-39.571,22.258-67.144,22.258c-16.571,0-30.821-2.722-42.753-8.161
		c-11.935-5.439-20.866-12.798-26.802-22.072c-5.936-9.273-8.903-19.722-8.903-31.346c0-9.396,2.287-16.815,6.863-22.258
		c4.573-5.439,10.323-8.161,17.249-8.161c6.307,0,11.375,2.072,15.21,6.214c3.831,4.145,5.75,9.802,5.75,16.972
		c0,4.576-0.991,8.438-2.968,11.592c-1.979,3.153-5.443,6.092-10.387,8.811c-5.318,2.846-7.976,5.564-7.976,8.161
		c0,3.709,1.884,7.883,5.656,12.52c3.771,4.637,9.335,8.347,16.693,11.129c7.355,2.782,16.661,4.173,27.915,4.173
		c19.411,0,33.786-4.79,43.124-14.374c9.334-9.581,14.003-24.947,14.003-46.092c0-22.133-3.987-37.866-11.963-47.204
		c-7.976-9.335-19.817-14.004-35.52-14.004c-4.205,0-9.459,0.495-15.766,1.483c-5.071,0.742-8.718,1.113-10.943,1.113
		c-3.71,0-6.584-0.771-8.625-2.318c-2.04-1.545-3.061-3.492-3.061-5.843c0-2.597,0.957-4.605,2.875-6.028
		c1.916-1.42,5.037-2.133,9.367-2.133l10.201,0.371l8.903,0.371c15.702,0,27.512-4.011,35.426-12.036
		c7.912-8.021,11.871-20.429,11.871-37.215c0-20.614-3.773-35.272-11.314-43.976c-7.544-8.7-18.797-13.053-33.757-13.053
		c-13.726,0-24.669,2.466-32.83,7.398s-12.241,9.497-12.241,13.688c0,2.716,2.348,6.354,7.048,10.915
		c6.678,6.167,10.016,12.58,10.016,19.24c0,5.058-1.854,9.312-5.564,12.764c-3.709,3.454-8.471,5.179-14.281,5.179
		c-6.185,0-11.222-2.348-15.117-7.049c-3.895-4.697-5.842-11.25-5.842-19.66c0-13.105,4.697-24.729,14.096-34.87
		c13.354-14.343,32.459-21.516,57.313-21.516c23.246,0,41.794,6.245,55.644,18.733c13.848,12.49,20.773,27.946,20.773,46.369
		c0,13.233-3.741,24.669-11.221,34.314C1736.803,174.037,1723.912,182.569,1705.613,189.988z"/>
	<path id="XMLID_38_" d="M1964.571,64.976c24.112,0,44.205,9.398,60.281,28.192c19.907,23.124,29.862,58.18,29.862,105.167
		c0,43.651-8.657,76.881-25.968,99.695c-17.313,22.813-38.208,34.221-62.691,34.221c-23.62,0-43.342-9.581-59.168-28.749
		c-19.785-24.112-29.677-58.919-29.677-104.425c0-43.277,9.335-77.716,28.008-103.313
		C1920.179,75.24,1939.964,64.976,1964.571,64.976z M1965.685,78.33c-16.322,0-29.06,7.822-38.209,23.463
		c-9.152,15.645-13.726,48.071-13.726,97.284c0,48.103,4.73,80.19,14.189,96.264c9.459,16.075,22.165,24.112,38.116,24.112
		c16.072,0,28.438-7.42,37.096-22.258c10.262-17.682,15.395-49.955,15.395-96.82c0-48.471-4.822-80.93-14.467-97.376
		C1994.434,86.555,1981.636,78.33,1965.685,78.33z"/>
	<path id="XMLID_41_" d="M2115.01,205.383c9.646-12.858,19.783-22.071,30.419-27.636c10.633-5.564,22.318-8.347,35.056-8.347
		c20.524,0,37.745,6.955,51.656,20.866c13.91,13.911,20.866,31.502,20.866,52.769c0,25.597-8.226,46.865-24.669,63.805
		c-16.447,16.942-36.789,25.411-61.022,25.411c-17.064,0-32.273-4.544-45.628-13.633s-24.269-23.277-32.737-42.567
		c-8.471-19.29-12.705-41.794-12.705-67.515c0-27.821,5.193-53.047,15.58-75.676c10.387-22.628,23.648-39.6,39.785-50.913
		c16.137-11.314,32.983-16.972,50.543-16.972c18.053,0,33.387,4.947,45.999,14.838c10.509,8.04,15.766,17.685,15.766,28.935
		c0,7.544-2.318,13.726-6.955,18.549c-4.638,4.822-10.294,7.233-16.972,7.233c-6.185,0-11.471-2.04-15.858-6.121
		c-4.391-4.08-6.585-8.903-6.585-14.467c0-3.71,1.484-7.912,4.452-12.613c2.718-4.326,4.08-7.727,4.08-10.201
		c0-3.46-1.669-6.307-5.008-8.532c-4.451-2.843-10.572-4.266-18.362-4.266c-11.995,0-22.938,3.773-32.83,11.314
		c-9.894,7.543-18.27,20.495-25.132,38.857c-6.863,18.362-10.294,38.982-10.294,61.857
		C2114.454,193.698,2114.64,198.706,2115.01,205.383z M2170.283,187.577c-15.459,0-28.101,5.597-37.931,16.786
		c-9.83,11.192-14.746,26.926-14.746,47.204c0,22.011,4.759,38.829,14.282,50.45c9.521,11.624,21.638,17.436,36.354,17.436
		c14.59,0,26.339-5.501,35.241-16.508c8.903-11.004,13.354-27.451,13.354-49.338c0-23.245-4.112-40.063-12.334-50.45
		C2196.279,192.771,2184.872,187.577,2170.283,187.577z"/>
	<path id="XMLID_44_" d="M2401.419,205.383c9.646-12.858,19.783-22.071,30.419-27.636c10.633-5.564,22.318-8.347,35.056-8.347
		c20.524,0,37.745,6.955,51.656,20.866c13.91,13.911,20.866,31.502,20.866,52.769c0,25.597-8.226,46.865-24.669,63.805
		c-16.447,16.942-36.789,25.411-61.022,25.411c-17.064,0-32.273-4.544-45.628-13.633s-24.269-23.277-32.737-42.567
		c-8.471-19.29-12.705-41.794-12.705-67.515c0-27.821,5.193-53.047,15.58-75.676c10.387-22.628,23.648-39.6,39.785-50.913
		c16.137-11.314,32.983-16.972,50.543-16.972c18.053,0,33.387,4.947,45.999,14.838c10.509,8.04,15.766,17.685,15.766,28.935
		c0,7.544-2.318,13.726-6.955,18.549c-4.638,4.822-10.294,7.233-16.972,7.233c-6.185,0-11.471-2.04-15.858-6.121
		c-4.391-4.08-6.585-8.903-6.585-14.467c0-3.71,1.484-7.912,4.452-12.613c2.718-4.326,4.08-7.727,4.08-10.201
		c0-3.46-1.669-6.307-5.008-8.532c-4.451-2.843-10.572-4.266-18.362-4.266c-11.995,0-22.938,3.773-32.83,11.314
		c-9.894,7.543-18.27,20.495-25.132,38.857c-6.863,18.362-10.294,38.982-10.294,61.857
		C2400.863,193.698,2401.049,198.706,2401.419,205.383z M2456.692,187.577c-15.459,0-28.101,5.597-37.931,16.786
		c-9.83,11.192-14.746,26.926-14.746,47.204c0,22.011,4.759,38.829,14.282,50.45c9.521,11.624,21.638,17.436,36.354,17.436
		c14.59,0,26.339-5.501,35.241-16.508c8.903-11.004,13.354-27.451,13.354-49.338c0-23.245-4.112-40.063-12.334-50.45
		C2482.688,192.771,2471.281,187.577,2456.692,187.577z"/>
	<path id="XMLID_47_" d="M2588.397,64.976c31.282,7.173,56.817,10.758,76.603,10.758c9.274,0,17.991-0.896,26.152-2.689
		c8.161-1.791,14.282-3.863,18.362-6.214c2.102-1.112,3.461-1.669,4.081-1.669c1.234,0,1.854,0.927,1.854,2.782
		c0,4.329-2.782,10.048-8.347,17.156c-5.564,7.112-13.14,12.77-22.724,16.972c-9.584,4.205-20.62,6.307-33.111,6.307
		c-14.467,0-31.72-2.227-51.751-6.678l-6.046,70.859c9.393-4.701,18.354-8.226,26.88-10.575c8.526-2.351,16.624-3.527,24.286-3.527
		c24.223,0,44.585,8.039,61.087,24.112c16.499,16.075,24.75,35.922,24.75,59.539c0,26.216-8.781,47.792-26.339,64.731
		c-17.56,16.942-40.313,25.411-68.256,25.411c-21.394,0-38.797-6.089-52.212-18.27c-13.419-12.178-20.125-26.678-20.125-43.495
		c0-10.138,2.133-17.96,6.399-23.463c4.266-5.501,9.737-8.254,16.415-8.254c6.552,0,11.899,2.196,16.044,6.584
		c4.141,4.391,6.213,10.109,6.213,17.157c0,5.318-1.02,9.459-3.061,12.427c-2.04,2.968-5.781,5.443-11.221,7.419
		c-5.443,2.104-8.161,4.516-8.161,7.234c0,3.959,1.854,8.317,5.564,13.076c3.709,4.762,9.303,8.656,16.785,11.686
		c7.48,3.031,16.044,4.544,25.689,4.544c18.919,0,33.354-5.872,43.309-17.621c9.952-11.746,14.932-30.85,14.932-57.313
		c0-24.112-5.258-41.733-15.766-52.861c-10.512-11.129-23.927-16.693-40.249-16.693c-7.419,0-14.839,1.362-22.258,4.08
		c-7.419,2.722-14.838,6.802-22.258,12.242c-0.866,8.656-2.411,14.438-4.637,17.342c-2.226,2.907-5.071,4.359-8.532,4.359
		c-2.475,0-4.451-0.864-5.935-2.597c-1.484-1.73-2.227-4.142-2.227-7.234c0-5.439,2.533-10.818,7.605-16.137
		c1.483-1.605,2.532-3.028,3.152-4.266l4.313-54.528C2587.359,106.154,2588.272,85.257,2588.397,64.976z"/>
	<path id="XMLID_49_" d="M23.185,609.097l49.709-3.153c2.718,12.926,4.512,25.237,5.379,36.928
		c9.413-13.539,18.823-23.077,28.236-28.618c9.413-5.538,19.753-8.31,31.024-8.31c12.012,0,21.921,3.142,29.723,9.422
		c7.802,6.283,13.81,16.505,18.021,30.665c8.271-13.424,17.47-23.46,27.596-30.111c10.123-6.648,21.174-9.976,33.148-9.976
		c15.804,0,27.657,4.701,35.56,14.097c10.123,12.366,15.187,28.317,15.187,47.854v86.248c0,5.193,1.298,8.718,3.895,10.572
		c3.461,2.846,8.594,4.266,15.396,4.266h8.717v13.911h-87.36v-13.911h8.718c7.419,0,12.612-1.237,15.58-3.712
		c2.968-2.476,4.451-6.19,4.451-11.146v-86.36c0-12.874-3.146-22.84-9.438-29.9c-6.292-7.057-14.558-10.587-24.794-10.587
		c-7.772,0-14.804,2.075-21.095,6.223c-6.292,4.147-11.228,10.06-14.804,17.733c-5.304,11.021-7.955,20.371-7.955,28.045v74.847
		c0,5.078,1.358,8.825,4.08,11.239c2.719,2.414,6.924,3.619,12.612,3.619h11.871v13.911H127.98v-13.911h10.016
		c6.307,0,11.005-1.234,14.097-3.709c3.09-2.473,4.637-5.625,4.637-9.46v-80.127c0-16.939-2.999-29.241-8.995-36.91
		c-5.999-7.665-14.067-11.5-24.205-11.5c-13.108,0-23.186,4.452-30.233,13.354c-10.016,12.613-15.023,27.33-15.023,44.145v69.369
		c0,5.318,1.174,8.967,3.523,10.943c3.339,2.597,8.532,3.895,15.581,3.895h8.902v13.911H18.733v-13.911h13.169
		c4.944,0,8.746-1.234,11.407-3.709c2.657-2.473,3.987-5.625,3.987-9.46V641.927c0-6.307-1.608-11.004-4.822-14.097
		c-3.217-3.089-9.645-5.068-19.29-5.935V609.097z"/>
	<path id="XMLID_51_" d="M518.614,763.786l6.677,10.388c-9.027,9.273-19.043,13.91-30.048,13.91c-8.41,0-15.487-2.289-21.237-6.862
		s-10.789-12.612-15.116-24.112c-11.749,12.366-22.072,20.62-30.975,24.762c-8.903,4.141-19.601,6.213-32.088,6.213
		c-17.807,0-31.347-3.834-40.62-11.499c-9.274-7.666-13.911-17.496-13.911-29.491c0-18.053,10.602-33.045,31.81-44.979
		c21.205-11.931,49.431-19.875,84.671-23.834v-26.338c0-9.396-3.773-17.435-11.313-24.112c-7.544-6.677-17.128-10.016-28.75-10.016
		c-10.758,0-20.031,2.226-27.821,6.678c-5.564,3.338-8.347,6.616-8.347,9.83c0,1.854,1.483,4.762,4.451,8.718
		c3.585,4.946,5.379,9.337,5.379,13.169c0,5.564-1.794,10.108-5.379,13.633c-3.588,3.523-8.285,5.286-14.096,5.286
		c-6.185,0-11.347-2.102-15.488-6.307c-4.144-4.202-6.213-9.581-6.213-16.137c0-12.241,6.892-23.432,20.681-33.571
		c13.786-10.138,31.87-15.21,54.253-15.21c20.648,0,36.414,4.452,47.297,13.354c10.88,9.028,16.322,19.971,16.322,32.83v94.965
		c0,8.411,1.359,14.593,4.08,18.548c2.719,4.081,6.243,6.121,10.572,6.121C508.227,769.722,513.296,767.745,518.614,763.786z
		 M457.776,690.522c-31.409,4.33-53.667,11.378-66.772,21.145c-9.77,7.419-14.652,17.931-14.652,31.531
		c0,9.523,2.533,16.972,7.604,22.351c5.068,5.379,11.686,8.068,19.847,8.068c14.589,0,27.233-5.533,37.93-16.601
		c10.694-11.065,16.044-24.947,16.044-41.64V690.522z"/>
	<path id="XMLID_54_" d="M528.273,609.097l62.507-3.153v70.297c6.677-23.121,14.714-40.62,24.112-52.49
		c9.396-11.871,21.02-17.807,34.87-17.807c9.396,0,16.907,2.875,22.535,8.625c5.626,5.75,8.439,13.447,8.439,23.093
		c0,7.79-1.887,13.85-5.657,18.177c-3.772,4.329-8.503,6.491-14.188,6.491c-5.564,0-10.048-1.854-13.447-5.564
		c-3.402-3.709-5.101-8.717-5.101-15.023c0-4.08,0.988-7.912,2.968-11.5c1.854-3.214,2.782-5.129,2.782-5.749
		c0-1.855-1.177-2.782-3.524-2.782c-5.072,0-10.821,2.967-17.25,8.902c-8.902,8.286-15.766,19.661-20.588,34.128
		c-7.419,22.507-11.129,40.499-11.129,53.975v37.281c0,4.205,1.484,7.42,4.452,9.646c2.967,2.226,8.036,3.338,15.209,3.338h22.072
		v13.911H529.387v-13.911h17.25c5.811,0,10.201-1.142,13.169-3.431c2.967-2.287,4.451-5.037,4.451-8.254V646.563
		c0-8.407-1.794-14.56-5.379-18.455c-3.588-3.895-8.718-5.843-15.395-5.843h-15.21V609.097z"/>
	<path id="XMLID_56_" d="M730.275,538.244h12.428v70.853h56.2v17.064h-56.2v111.473c0,9.646,2.286,17.035,6.862,22.165
		c4.573,5.133,10.387,7.697,17.435,7.697c8.408,0,15.581-3.896,21.516-11.686c5.936-7.79,9.396-20.648,10.388-38.579h12.427
		c-0.742,23.124-5.999,40.28-15.766,51.471c-9.77,11.192-22.443,16.785-38.023,16.785c-14.346,0-25.567-3.924-33.664-11.777
		c-8.101-7.852-12.149-18.146-12.149-30.883V626.161h-30.233v-12.983c13.778-2.348,24.267-8.098,31.465-17.25
		C723.633,582.202,729.406,562.977,730.275,538.244z"/>
	<path id="XMLID_58_" d="M813.757,609.097l69.184-2.04v149.496c0,4.081,0.988,6.987,2.968,8.718
		c2.843,2.475,6.428,3.709,10.758,3.709h19.66v13.911h-98.86v-13.911h18.362c5.44,0,9.428-1.327,11.964-3.987
		c2.533-2.657,3.802-6.521,3.802-11.593V643.967c0-6.924-1.979-12.148-5.935-15.673c-3.959-3.524-9.831-5.286-17.621-5.286h-14.281
		V609.097z M861.981,505.414c5.563,0,10.447,2.104,14.652,6.307c4.202,4.205,6.307,9.152,6.307,14.838
		c0,5.564-2.041,10.387-6.121,14.468c-4.08,4.08-8.967,6.12-14.653,6.12c-5.688,0-10.604-2.068-14.745-6.213
		c-4.145-4.142-6.214-8.996-6.214-14.561s2.102-10.447,6.307-14.652C851.716,507.519,856.538,505.414,861.981,505.414z"/>
	<path id="XMLID_61_" d="M921.534,609.097l57.685-3.523c2.348,10.882,4.08,23.619,5.193,38.208
		c7.79-12.612,16.971-22.071,27.543-28.378c10.573-6.307,22.536-9.46,35.891-9.46c11.5,0,21.145,2.258,28.935,6.771
		c7.79,4.516,14.033,11.656,18.733,21.423c4.698,9.77,7.049,20.713,7.049,32.83v84.578c0,6.307,1.42,10.79,4.266,13.447
		c2.843,2.66,7.604,3.987,14.282,3.987h12.241v13.911h-91.627v-13.911h8.718c8.161,0,13.848-1.298,17.064-3.895
		c3.214-2.597,4.822-6.492,4.822-11.686v-74.377c0-16.197-2.475-28.192-7.419-35.982c-6.927-11.129-17.436-16.693-31.532-16.693
		c-13.975,0-25.628,5.628-34.962,16.879c-9.338,11.253-14.004,25.905-14.004,43.958v64.361c0,6.307,1.452,10.79,4.358,13.447
		c2.904,2.66,7.697,3.987,14.375,3.987h12.056v13.911h-91.997v-13.911h12.056c6.058,0,10.665-1.234,13.818-3.709
		c3.153-2.473,4.729-5.564,4.729-9.274V643.781c0-7.419-2.011-13.044-6.027-16.878c-4.021-3.832-9.802-5.75-17.343-5.75h-8.903
		V609.097z"/>
	<path id="XMLID_63_" d="M1159.334,717.417c7.665,21.394,16.476,36.2,26.431,44.422c9.952,8.225,22.226,12.335,36.817,12.335
		c13.476,0,23.834-2.937,31.067-8.811c7.233-5.872,10.851-13.323,10.851-22.351c0-5.193-1.333-9.737-3.996-13.633
		c-2.664-3.895-6.35-6.799-11.057-8.717c-4.709-1.916-16.913-4.73-36.611-8.439c-18.832-3.71-31.961-7.604-39.386-11.686
		c-7.425-4.08-13.213-9.706-17.356-16.879c-4.147-7.17-6.22-14.96-6.22-23.37c0-12.734,4.271-24.298,12.818-34.685
		c11.019-13.229,26.437-19.846,46.251-19.846c15.107,0,29.1,4.761,41.979,14.281l12.262-12.983h7.616l4.828,61.95h-12.427
		c-5.455-17.557-12.824-30.201-22.116-37.931c-9.291-7.727-20.753-11.593-34.38-11.593c-11.772,0-21.003,2.875-27.691,8.625
		c-6.691,5.75-10.036,12.77-10.036,21.055c0,7.298,3.095,13.354,9.291,18.177c6.069,4.947,17.963,8.849,35.676,11.703
		c20.563,3.478,33.94,6.394,40.136,8.752c10.149,3.71,18.009,9.425,23.579,17.148c5.57,7.727,8.355,17.148,8.355,28.269
		c0,15.325-6.037,28.303-18.11,38.93c-12.073,10.631-27.393,15.942-45.964,15.942c-17.212,0-33.187-5.686-47.92-17.063
		l-13.558,15.58h-9.842l-3.716-69.184H1159.334z"/>
	<path id="XMLID_65_" d="M1296.046,508.567l66.402-3.153v189.745l56.507-49.222c5.435-4.828,8.152-9.027,8.152-12.598
		c0-3.075-1.605-5.475-4.811-7.199c-4.811-2.46-12.642-3.813-23.495-4.061v-12.983h92.554v12.983
		c-18.301,0.991-32.273,5.814-41.918,14.468l-39.938,35.343l64.793,89.113c3.956,5.318,10.818,7.976,20.588,7.976h9.645v13.911
		h-94.965v-13.911h9.456c7.043,0,11.77-0.617,14.181-1.852s3.617-2.719,3.617-4.448c0-1.73-0.62-3.461-1.854-5.19l-47.304-66.269
		l-25.207,22.301v43.959c0,3.588,1.174,6.245,3.523,7.976c3.339,2.351,7.976,3.523,13.911,3.523h12.057v13.911h-93.297v-13.911
		h15.024c6.182,0,10.758-1.298,13.726-3.895s4.451-6.058,4.451-10.387V540.284c0-5.564-1.794-9.645-5.379-12.241
		c-5.193-3.71-12.181-5.564-20.959-5.564h-9.46V508.567z"/>
	<path id="XMLID_67_" d="M1692.615,763.786l6.677,10.388c-9.027,9.273-19.043,13.91-30.048,13.91c-8.41,0-15.487-2.289-21.237-6.862
		s-10.789-12.612-15.116-24.112c-11.749,12.366-22.072,20.62-30.975,24.762c-8.903,4.141-19.601,6.213-32.088,6.213
		c-17.807,0-31.347-3.834-40.62-11.499c-9.274-7.666-13.911-17.496-13.911-29.491c0-18.053,10.602-33.045,31.81-44.979
		c21.205-11.931,49.431-19.875,84.671-23.834v-26.338c0-9.396-3.773-17.435-11.313-24.112c-7.544-6.677-17.128-10.016-28.75-10.016
		c-10.758,0-20.031,2.226-27.821,6.678c-5.564,3.338-8.347,6.616-8.347,9.83c0,1.854,1.483,4.762,4.451,8.718
		c3.585,4.946,5.379,9.337,5.379,13.169c0,5.564-1.794,10.108-5.379,13.633c-3.588,3.523-8.285,5.286-14.096,5.286
		c-6.185,0-11.347-2.102-15.488-6.307c-4.144-4.202-6.213-9.581-6.213-16.137c0-12.241,6.892-23.432,20.681-33.571
		c13.786-10.138,31.87-15.21,54.253-15.21c20.648,0,36.414,4.452,47.297,13.354c10.88,9.028,16.322,19.971,16.322,32.83v94.965
		c0,8.411,1.359,14.593,4.08,18.548c2.719,4.081,6.243,6.121,10.572,6.121C1682.228,769.722,1687.297,767.745,1692.615,763.786z
		 M1631.777,690.522c-31.409,4.33-53.667,11.378-66.772,21.145c-9.77,7.419-14.652,17.931-14.652,31.531
		c0,9.523,2.533,16.972,7.604,22.351c5.068,5.379,11.686,8.068,19.847,8.068c14.589,0,27.233-5.533,37.93-16.601
		c10.694-11.065,16.044-24.947,16.044-41.64V690.522z"/>
	<path id="XMLID_70_" d="M1770.717,505.414v251.881c0,3.463,1.049,6.121,3.153,7.976c3.089,2.475,6.862,3.709,11.313,3.709h18.362
		v13.911h-98.489v-13.911h17.436c5.686,0,9.923-1.358,12.705-4.08c2.782-2.719,4.174-6.553,4.174-11.5V541.953
		c0-6.182-1.67-10.693-5.009-13.54c-4.576-3.955-10.201-5.935-16.878-5.935h-15.58v-13.911L1770.717,505.414z"/>
	<path id="XMLID_72_" d="M1972.532,697.199h-124.456c0.617,26.463,5.564,45.136,14.838,56.015
		c10.634,12.242,24.174,18.362,40.62,18.362c24.234,0,43.709-13.786,58.426-41.361l12.057,5.193
		c-18.056,35.119-44.145,52.676-78.272,52.676c-23.249,0-42.816-8.407-58.704-25.225c-15.891-16.815-23.834-38.331-23.834-64.547
		c0-28.193,7.819-50.975,23.463-68.35c15.642-17.371,34.899-26.06,57.777-26.06c16.814,0,31.346,4.33,43.587,12.983
		c12.242,8.657,21.452,21.084,27.637,37.281C1969.997,665.546,1972.283,679.889,1972.532,697.199z M1848.076,684.03h75.305
		c4.451,0,7.911-1.513,10.387-4.544c2.472-3.028,3.709-8.19,3.709-15.487c0-13.602-4.236-25.162-12.705-34.685
		c-8.471-9.521-18.455-14.282-29.955-14.282c-12.861,0-23.772,5.75-32.736,17.25C1853.113,643.781,1848.447,661.031,1848.076,684.03
		z"/>
	<path id="XMLID_75_" d="M1984.232,609.097l57.685-3.523c2.348,10.882,4.08,23.619,5.193,38.208
		c7.79-12.612,16.971-22.071,27.543-28.378c10.573-6.307,22.536-9.46,35.891-9.46c11.5,0,21.145,2.258,28.935,6.771
		c7.79,4.516,14.033,11.656,18.733,21.423c4.698,9.77,7.049,20.713,7.049,32.83v84.578c0,6.307,1.42,10.79,4.266,13.447
		c2.843,2.66,7.604,3.987,14.282,3.987h12.241v13.911h-91.627v-13.911h8.718c8.161,0,13.848-1.298,17.064-3.895
		c3.214-2.597,4.822-6.492,4.822-11.686v-74.377c0-16.197-2.475-28.192-7.419-35.982c-6.927-11.129-17.436-16.693-31.532-16.693
		c-13.975,0-25.628,5.628-34.962,16.879c-9.338,11.253-14.004,25.905-14.004,43.958v64.361c0,6.307,1.452,10.79,4.358,13.447
		c2.904,2.66,7.697,3.987,14.375,3.987h12.056v13.911h-91.997v-13.911h12.056c6.058,0,10.665-1.234,13.818-3.709
		c3.153-2.473,4.729-5.564,4.729-9.274V643.781c0-7.419-2.011-13.044-6.027-16.878c-4.021-3.832-9.802-5.75-17.343-5.75h-8.903
		V609.097z"/>
	<path id="XMLID_77_" d="M2398.355,594.444l-22.252,76.081l-8.332,28.329c-1.576,6.822-2.361,12.334-2.361,16.533
		c0,4.203,1.081,7.445,3.246,9.729c2.161,2.286,4.976,3.429,8.438,3.429c8.283,0,17.34-3.922,27.17-11.767
		c9.831-7.843,18.331-20.258,25.504-37.247c7.17-16.985,10.758-34.62,10.758-52.904c0-17.169-4.359-33.291-13.076-48.364
		c-8.718-15.07-20.435-26.59-35.148-34.56c-14.717-7.967-31.842-11.952-51.378-11.952c-24.112,0-46.401,6.179-66.865,18.536
		c-20.467,12.358-36.632,29.564-48.503,51.621c-11.87,22.058-17.806,46.741-17.806,74.047c0,25.828,5.037,48.008,15.116,66.544
		c10.077,18.536,24.637,33.238,43.681,44.112c19.04,10.873,40.124,16.311,63.248,16.311c27.697,0,52.705-7.604,75.026-22.814
		c22.318-15.209,38.673-35.858,49.06-61.95h11.129c-8.657,28.071-25.536,51.192-50.636,69.37
		c-25.104,18.177-53.668,27.265-85.691,27.265c-39.693,0-72.587-13.192-98.675-39.573c-26.092-26.385-39.137-59.719-39.137-100.005
		c0-28.419,6.646-54.493,19.939-78.221c13.29-23.727,31.375-42.323,54.252-55.794c22.875-13.471,47.729-20.206,74.563-20.206
		c22.629,0,42.383,4.51,59.261,13.528c16.879,9.02,30.048,21.838,39.508,38.455c9.459,16.618,14.188,35.305,14.188,56.059
		c0,27.799-8.039,53.313-24.112,76.539c-16.075,23.229-36.788,34.841-62.136,34.841c-8.41,0-14.685-1.915-18.825-5.747
		c-4.145-3.831-6.214-9.329-6.214-16.499c0-5.808,0.956-13.241,2.872-22.301c-14.699,17.745-26.805,29.607-36.316,35.583
		s-18.096,8.964-25.753,8.964c-7.784,0-14.484-3.24-20.104-9.726c-5.623-6.483-8.431-15.282-8.431-26.396
		c0-15.931,4.987-33.16,14.966-51.685c9.975-18.524,22.028-33.036,36.156-43.532c14.129-10.497,26.274-15.746,36.438-15.746
		c7.312,0,13.198,1.829,17.661,5.483c4.46,3.654,7.497,9.135,9.108,16.444l4.933-17.476L2398.355,594.444z M2342.967,600.75
		c-13.354,0-27.269,12.257-41.735,36.763c-14.468,24.507-21.701,44.971-21.701,61.391c0,7.037,1.762,12.563,5.289,16.574
		c3.527,4.015,7.952,6.02,13.276,6.02c6.683,0,14.232-3.521,22.648-10.569c11.384-9.642,21.099-22.9,29.144-39.773
		s12.045-32.396,11.998-46.564c0-7.761-1.762-13.673-5.286-17.739C2353.075,602.785,2348.531,600.75,2342.967,600.75z"/>
	<path id="XMLID_80_" d="M2547.748,603.903c23.37,0,42.999,8.439,58.89,25.318c15.887,16.878,23.834,39.106,23.834,66.68
		c0,19.043-3.557,35.272-10.665,48.688c-7.112,13.418-17.25,24.02-30.419,31.81s-27.358,11.685-42.567,11.685
		c-22.507,0-41.579-8.532-57.221-25.596c-15.644-17.064-23.463-39.197-23.463-66.401c0-27.326,7.852-49.523,23.556-66.587
		C2505.395,612.436,2524.748,603.903,2547.748,603.903z M2547.748,617.072c-13.851,0-25.226,6.277-34.129,18.826
		c-8.902,12.552-13.354,32.366-13.354,59.446c0,27.575,4.42,47.731,13.262,60.466c8.84,12.737,20.247,19.104,34.222,19.104
		c14.467,0,26.182-6.367,35.147-19.104c8.965-12.734,13.447-33.571,13.447-62.506c0-26.831-4.422-46.245-13.262-58.24
		C2574.239,623.071,2562.462,617.072,2547.748,617.072z"/>
	<path id="XMLID_83_" d="M2700.041,605.943v115.183c0,14.097,3.547,24.979,10.642,32.645c7.095,7.669,16.259,11.5,27.486,11.5
		c13.817,0,25.572-5.594,35.258-16.786c9.686-11.189,14.531-25.193,14.531-42.011V641.37c0-5.936-2.133-10.54-6.398-13.818
		c-4.267-3.274-12.459-5.101-24.576-5.472v-12.983l61.022-3.153v142.634c0,6.556,1.854,11.593,5.564,15.116
		c3.709,3.524,8.902,5.286,15.58,5.286h10.943v12.428l-58.426,1.298l-3.71-34.128c-10.372,12.242-20.806,21.455-31.3,27.637
		c-10.494,6.185-21.109,9.273-31.85,9.273c-15.679,0-28.828-5.254-39.446-15.766c-10.74-10.387-16.11-28.007-16.11-52.861v-75.49
		c0-6.677-2.661-11.746-7.976-15.209c-3.71-2.473-11.314-3.831-22.814-4.081v-12.983L2700.041,605.943z"/>
	<path id="XMLID_85_" d="M2903.155,538.244h12.428v70.853h56.2v17.064h-56.2v111.473c0,9.646,2.286,17.035,6.862,22.165
		c4.573,5.133,10.387,7.697,17.435,7.697c8.408,0,15.581-3.896,21.516-11.686c5.936-7.79,9.396-20.648,10.388-38.579h12.427
		c-0.742,23.124-5.999,40.28-15.766,51.471c-9.77,11.192-22.443,16.785-38.023,16.785c-14.346,0-25.567-3.924-33.664-11.777
		c-8.101-7.852-12.149-18.146-12.149-30.883V626.161h-30.233v-12.983c13.778-2.348,24.267-8.098,31.465-17.25
		C2896.513,582.202,2902.286,562.977,2903.155,538.244z"/>
	<path id="XMLID_87_" d="M3055.635,505.414v251.881c0,3.463,1.049,6.121,3.153,7.976c3.089,2.475,6.862,3.709,11.313,3.709h18.362
		v13.911h-98.489v-13.911h17.436c5.686,0,9.923-1.358,12.705-4.08c2.782-2.719,4.174-6.553,4.174-11.5V541.953
		c0-6.182-1.67-10.693-5.009-13.54c-4.576-3.955-10.201-5.935-16.878-5.935h-15.58v-13.911L3055.635,505.414z"/>
	<path id="XMLID_89_" d="M3176.396,603.903c23.37,0,42.999,8.439,58.89,25.318c15.887,16.878,23.834,39.106,23.834,66.68
		c0,19.043-3.557,35.272-10.665,48.688c-7.112,13.418-17.25,24.02-30.419,31.81s-27.358,11.685-42.567,11.685
		c-22.507,0-41.579-8.532-57.221-25.596c-15.644-17.064-23.463-39.197-23.463-66.401c0-27.326,7.852-49.523,23.556-66.587
		C3134.043,612.436,3153.396,603.903,3176.396,603.903z M3176.396,617.072c-13.851,0-25.226,6.277-34.129,18.826
		c-8.902,12.552-13.354,32.366-13.354,59.446c0,27.575,4.42,47.731,13.262,60.466c8.84,12.737,20.247,19.104,34.222,19.104
		c14.467,0,26.182-6.367,35.147-19.104c8.965-12.734,13.447-33.571,13.447-62.506c0-26.831-4.422-46.245-13.262-58.24
		C3202.888,623.071,3191.11,617.072,3176.396,617.072z"/>
	<path id="XMLID_92_" d="M3351.133,603.903c23.37,0,42.999,8.439,58.89,25.318c15.887,16.878,23.834,39.106,23.834,66.68
		c0,19.043-3.557,35.272-10.665,48.688c-7.112,13.418-17.25,24.02-30.419,31.81s-27.358,11.685-42.567,11.685
		c-22.507,0-41.579-8.532-57.221-25.596c-15.644-17.064-23.463-39.197-23.463-66.401c0-27.326,7.852-49.523,23.556-66.587
		C3308.779,612.436,3328.133,603.903,3351.133,603.903z M3351.133,617.072c-13.851,0-25.226,6.277-34.129,18.826
		c-8.902,12.552-13.354,32.366-13.354,59.446c0,27.575,4.42,47.731,13.262,60.466c8.84,12.737,20.247,19.104,34.222,19.104
		c14.467,0,26.182-6.367,35.147-19.104c8.965-12.734,13.447-33.571,13.447-62.506c0-26.831-4.422-46.245-13.262-58.24
		C3377.624,623.071,3365.847,617.072,3351.133,617.072z"/>
	<path id="XMLID_95_" d="M3440.919,508.567l66.402-3.153v189.745l56.507-49.222c5.435-4.828,8.152-9.027,8.152-12.598
		c0-3.075-1.605-5.475-4.811-7.199c-4.811-2.46-12.642-3.813-23.495-4.061v-12.983h92.554v12.983
		c-18.301,0.991-32.273,5.814-41.918,14.468l-39.938,35.343l64.793,89.113c3.956,5.318,10.818,7.976,20.588,7.976h9.645v13.911
		h-94.965v-13.911h9.456c7.043,0,11.77-0.617,14.181-1.852s3.617-2.719,3.617-4.448c0-1.73-0.62-3.461-1.854-5.19l-47.304-66.269
		l-25.207,22.301v43.959c0,3.588,1.174,6.245,3.523,7.976c3.339,2.351,7.976,3.523,13.911,3.523h12.057v13.911h-93.297v-13.911
		h15.024c6.182,0,10.758-1.298,13.726-3.895s4.451-6.058,4.451-10.387V540.284c0-5.564-1.794-9.645-5.379-12.241
		c-5.193-3.71-12.181-5.564-20.959-5.564h-9.46V508.567z"/>
	<path id="XMLID_97_" d="M3694.299,742.456c6.182,0,11.437,2.227,15.766,6.678c4.327,4.451,6.492,9.77,6.492,15.951
		c0,6.431-2.165,11.87-6.492,16.322c-4.329,4.451-9.645,6.677-15.951,6.677c-6.185,0-11.471-2.226-15.858-6.677
		c-4.391-4.452-6.584-9.831-6.584-16.137c0-6.307,2.193-11.686,6.584-16.137C3682.643,744.683,3687.993,742.456,3694.299,742.456z"
		/>
	<path id="XMLID_99_" d="M3877.011,731.328l12.056,3.523c-9.645,35.49-30.914,53.232-63.805,53.232
		c-24.112,0-43.837-7.976-59.168-23.927c-15.334-15.951-22.999-37.156-22.999-63.619c0-30.665,8.407-54.438,25.225-71.316
		c16.815-16.879,36.601-25.318,59.354-25.318c17.064,0,31.16,4.701,42.289,14.097c11.129,9.398,16.693,19.847,16.693,31.346
		c0,6.927-2.072,12.645-6.214,17.157c-4.144,4.515-9.06,6.77-14.745,6.77c-5.564,0-10.266-1.909-14.097-5.729
		c-3.834-3.819-5.75-8.442-5.75-13.867c0-5.42,2.102-10.596,6.307-15.528c1.977-2.342,2.968-4.19,2.968-5.547
		c0-3.573-2.411-7.054-7.233-10.444c-4.823-3.389-11.379-5.084-19.661-5.084c-15.088,0-26.523,5.498-34.313,16.487
		c-11.129,15.935-16.693,36.928-16.693,62.988c0,24.825,4.944,43.631,14.838,56.411c9.892,12.784,22.504,19.174,37.838,19.174
		C3851.043,772.133,3866.745,758.532,3877.011,731.328z"/>
	<path id="XMLID_101_" d="M3979.595,603.903c23.37,0,42.999,8.439,58.89,25.318c15.887,16.878,23.834,39.106,23.834,66.68
		c0,19.043-3.557,35.272-10.665,48.688c-7.112,13.418-17.25,24.02-30.419,31.81s-27.358,11.685-42.567,11.685
		c-22.507,0-41.579-8.532-57.221-25.596c-15.644-17.064-23.463-39.197-23.463-66.401c0-27.326,7.852-49.523,23.556-66.587
		C3937.241,612.436,3956.595,603.903,3979.595,603.903z M3979.595,617.072c-13.851,0-25.226,6.277-34.129,18.826
		c-8.902,12.552-13.354,32.366-13.354,59.446c0,27.575,4.42,47.731,13.262,60.466c8.84,12.737,20.247,19.104,34.222,19.104
		c14.467,0,26.182-6.367,35.147-19.104c8.965-12.734,13.447-33.571,13.447-62.506c0-26.831-4.422-46.245-13.262-58.24
		C4006.086,623.071,3994.309,617.072,3979.595,617.072z"/>
	<path id="XMLID_104_" d="M4083.106,609.097l49.709-3.153c2.718,12.926,4.512,25.237,5.379,36.928
		c9.413-13.539,18.823-23.077,28.236-28.618c9.413-5.538,19.753-8.31,31.024-8.31c12.012,0,21.921,3.142,29.723,9.422
		c7.802,6.283,13.81,16.505,18.021,30.665c8.271-13.424,17.47-23.46,27.596-30.111c10.123-6.648,21.174-9.976,33.148-9.976
		c15.804,0,27.657,4.701,35.56,14.097c10.123,12.366,15.187,28.317,15.187,47.854v86.248c0,5.193,1.298,8.718,3.895,10.572
		c3.461,2.846,8.594,4.266,15.396,4.266h8.717v13.911h-87.36v-13.911h8.718c7.419,0,12.612-1.237,15.58-3.712
		c2.968-2.476,4.451-6.19,4.451-11.146v-86.36c0-12.874-3.146-22.84-9.438-29.9c-6.292-7.057-14.558-10.587-24.794-10.587
		c-7.772,0-14.804,2.075-21.095,6.223c-6.292,4.147-11.228,10.06-14.804,17.733c-5.304,11.021-7.955,20.371-7.955,28.045v74.847
		c0,5.078,1.358,8.825,4.08,11.239c2.719,2.414,6.924,3.619,12.612,3.619h11.871v13.911h-88.659v-13.911h10.016
		c6.307,0,11.005-1.234,14.097-3.709c3.09-2.473,4.637-5.625,4.637-9.46v-80.127c0-16.939-2.999-29.241-8.995-36.91
		c-5.999-7.665-14.067-11.5-24.205-11.5c-13.108,0-23.186,4.452-30.233,13.354c-10.016,12.613-15.023,27.33-15.023,44.145v69.369
		c0,5.318,1.174,8.967,3.523,10.943c3.339,2.597,8.532,3.895,15.581,3.895h8.902v13.911h-87.546v-13.911h13.169
		c4.944,0,8.746-1.234,11.407-3.709c2.657-2.473,3.987-5.625,3.987-9.46V641.927c0-6.307-1.608-11.004-4.822-14.097
		c-3.217-3.089-9.645-5.068-19.29-5.935V609.097z"/>
</g>
</svg>