<!-- Generator: Adobe Illustrator 19.0.0, SVG Export Plug-In  -->
<svg version="1.1"
	 xmlns="http://www.w3.org/2000/svg" xmlns:xlink="http://www.w3.org/1999/xlink" xmlns:a="http://ns.adobe.com/AdobeSVGViewerExtensions/3.0/"
	 x="0px" y="0px" width="200.44px" height="174.225px" viewBox="0 0 200.44 174.225"
	 style="enable-background:new 0 0 200.44 174.225;" xml:space="preserve">
<style type="text/css">
	.st0{fill:#FEE000;}
</style>
<defs>
</defs>
<g id="XMLID_15_">
	<path id="XMLID_17_" class="st0" d="M153.162,156.831l-71.099,15.92c-32.595,7.298-64.935-13.209-72.233-45.803l-8.356-37.32
		c-7.298-32.595,13.209-64.935,45.803-72.233l71.099-15.92c32.595-7.298,64.935,13.209,72.233,45.803l8.356,37.32
		C206.264,117.193,185.757,149.532,153.162,156.831z"/>
	<path id="XMLID_16_" d="M126.111,82.083l-2.21-3.778l8.773-10.801l18.434-22.298h-0.324h-13.99h-1.15l-17.962,22.52l-0.002-0.004
		l-8.763,10.955l0.013,0.022l-4.776,5.987l-2.891,3.497c-0.126-0.128-0.257-0.252-0.387-0.377c-3.16-3.033-7.397-5.075-12.722-6.116
		c-0.917-0.179-1.866-0.329-2.847-0.45c-0.63-0.071-1.229-0.141-1.815-0.211c-1.306-0.155-2.51-0.305-3.596-0.451
		c-1.574-0.21-2.917-0.412-4.03-0.604c-4.26-0.652-7.311-2.015-9.153-4.087c-1.842-2.072-2.763-4.298-2.763-6.677
		c0-3.991,1.362-6.984,4.087-8.98c2.724-1.995,6.044-2.993,9.959-2.993c3.454,0,6.838,0.53,10.158,1.575
		c0.221,0.07,0.444,0.135,0.664,0.209c3.174,1.07,6.16,2.437,8.962,4.095l3.095-3.881l4.848-6.078
		c-1.555-1.023-3.173-1.97-4.848-2.848c-2.436-1.277-4.994-2.406-7.682-3.378c-1.64-0.592-3.321-1.074-5.039-1.454
		c-3.068-0.678-6.261-1.022-9.582-1.022c-8.673,0-15.398,2.303-20.176,6.908s-7.167,10.477-7.167,17.615
		c0,6.102,1.9,11.311,5.699,15.629c3.799,4.317,9.325,6.975,16.579,7.973c2.187,0.308,4.106,0.576,5.756,0.806
		c1.65,0.23,3.434,0.461,5.353,0.691c1.296,0.171,2.472,0.435,3.538,0.784c4.929,1.614,7.399,5.13,7.399,10.556
		c0,3.493-1.478,6.313-4.432,8.462c-0.888,0.646-1.878,1.193-2.967,1.644c-2.535,1.052-5.612,1.579-9.237,1.579
		c-4.49,0-8.789-0.767-12.894-2.303c-4.107-1.534-7.733-3.569-10.88-6.102l-8.404,9.556c8.75,7.676,19.437,11.513,32.063,11.513
		c3.375,0,6.492-0.301,9.352-0.903c4.75-0.999,8.79-2.828,12.12-5.487c0.207-0.165,0.403-0.338,0.602-0.509
		c4.928-4.223,7.399-10.037,7.399-17.451c0-2.47-0.351-4.848-1.05-7.132l7.721-9.339l23.562,40.13h0.014h15.082h0.099
		L126.111,82.083z"/>
</g>
</svg>